M48
; DRILL file {KiCad 8.0.1} date 2024-03-22T20:00:49-0400
; FORMAT={-:-/ absolute / inch / decimal}
; #@! TF.CreationDate,2024-03-22T20:00:49-04:00
; #@! TF.GenerationSoftware,Kicad,Pcbnew,8.0.1
; #@! TF.FileFunction,Plated,1,2,PTH
FMAT,2
INCH
; #@! TA.AperFunction,Plated,PTH,ComponentDrill
T1C0.0256
; #@! TA.AperFunction,Plated,PTH,ComponentDrill
T2C0.0276
; #@! TA.AperFunction,Plated,PTH,ComponentDrill
T3C0.0315
; #@! TA.AperFunction,Plated,PTH,ComponentDrill
T4C0.0374
; #@! TA.AperFunction,Plated,PTH,ComponentDrill
T5C0.0394
; #@! TA.AperFunction,Plated,PTH,ComponentDrill
T6C0.0433
; #@! TA.AperFunction,Plated,PTH,ComponentDrill
T7C0.0472
; #@! TA.AperFunction,Plated,PTH,ComponentDrill
T8C0.0512
; #@! TA.AperFunction,Plated,PTH,ComponentDrill
T9C0.0630
%
G90
G05
T2
X1.8579Y-1.0236
X1.9291Y-1.2205
X2.1579Y-1.0236
X2.2291Y-1.2205
X2.5346Y-2.1063
X2.5346Y-2.3228
X2.5543Y-1.9291
X2.8346Y-2.1063
X2.8346Y-2.3228
X2.8543Y-1.9291
X3.1449Y-0.9449
X3.4449Y-0.9449
T3
X1.5157Y-1.063
X1.5238Y-1.3583
X1.6142Y-1.063
X1.6222Y-1.3583
X3.9813Y-0.9913
X3.9813Y-1.2913
X4.0813Y-0.9913
X4.0813Y-1.2913
X4.1813Y-0.9913
X4.1813Y-1.2913
X4.2813Y-0.9913
X4.2813Y-1.2913
X4.3813Y-0.9913
X4.3813Y-1.2913
X4.4813Y-0.9913
X4.4813Y-1.2913
X4.5813Y-0.9913
X4.5813Y-1.2913
X4.6813Y-0.9913
X4.6813Y-1.2913
T4
X1.1024Y-1.437
X1.1024Y-1.5354
X1.1024Y-1.6339
X1.1024Y-1.7323
X1.1024Y-1.9882
X1.1024Y-2.0866
X1.1024Y-2.185
X1.1024Y-2.2835
X1.1024Y-2.3819
X1.1024Y-2.4803
X1.6142Y-2.2047
X1.6142Y-2.3031
X1.6142Y-2.4016
X3.8189Y-2.0866
X3.8189Y-2.185
X3.8189Y-2.2835
X3.8189Y-2.3819
X4.1142Y-1.6339
X4.1142Y-1.7323
X4.1142Y-1.8307
X4.1142Y-1.9291
X4.1339Y-2.185
X4.1339Y-2.2835
X4.1339Y-2.3819
X4.5669Y-2.185
X4.5669Y-2.2835
X4.5669Y-2.3819
T5
X3.3661Y-1.4028
X3.3661Y-1.5997
X4.7638Y-1.8307
X4.7638Y-1.9291
T6
X4.3638Y-1.5157
X4.7638Y-1.5157
T7
X2.5591Y-1.0236
X2.5591Y-1.0906
X2.5591Y-1.1575
X2.5591Y-1.2244
X2.5591Y-1.2913
T8
X2.9331Y-1.3583
X2.9331Y-1.5551
T9
X2.9827Y-1.122
X3.5827Y-1.122
T1
G00X1.1732Y-0.939
M15
G01X1.189Y-0.939
M16
G05
G00X1.1732Y-1.1295
M15
G01X1.189Y-1.1295
M16
G05
T2
G00X1.0531Y-0.9268
M15
G01X1.0728Y-0.9268
M16
G05
G00X1.0531Y-1.1417
M15
G01X1.0728Y-1.1417
M16
G05
M30
