%TF.GenerationSoftware,KiCad,Pcbnew,8.0.1*%
%TF.CreationDate,2024-03-22T20:00:45-04:00*%
%TF.ProjectId,PowerBoost_PCB,506f7765-7242-46f6-9f73-745f5043422e,rev?*%
%TF.SameCoordinates,Original*%
%TF.FileFunction,Copper,L1,Top*%
%TF.FilePolarity,Positive*%
%FSLAX46Y46*%
G04 Gerber Fmt 4.6, Leading zero omitted, Abs format (unit mm)*
G04 Created by KiCad (PCBNEW 8.0.1) date 2024-03-22 20:00:45*
%MOMM*%
%LPD*%
G01*
G04 APERTURE LIST*
G04 Aperture macros list*
%AMRoundRect*
0 Rectangle with rounded corners*
0 $1 Rounding radius*
0 $2 $3 $4 $5 $6 $7 $8 $9 X,Y pos of 4 corners*
0 Add a 4 corners polygon primitive as box body*
4,1,4,$2,$3,$4,$5,$6,$7,$8,$9,$2,$3,0*
0 Add four circle primitives for the rounded corners*
1,1,$1+$1,$2,$3*
1,1,$1+$1,$4,$5*
1,1,$1+$1,$6,$7*
1,1,$1+$1,$8,$9*
0 Add four rect primitives between the rounded corners*
20,1,$1+$1,$2,$3,$4,$5,0*
20,1,$1+$1,$4,$5,$6,$7,0*
20,1,$1+$1,$6,$7,$8,$9,0*
20,1,$1+$1,$8,$9,$2,$3,0*%
G04 Aperture macros list end*
%TA.AperFunction,ComponentPad*%
%ADD10RoundRect,0.250000X0.725000X-0.600000X0.725000X0.600000X-0.725000X0.600000X-0.725000X-0.600000X0*%
%TD*%
%TA.AperFunction,ComponentPad*%
%ADD11O,1.950000X1.700000*%
%TD*%
%TA.AperFunction,ComponentPad*%
%ADD12C,2.600000*%
%TD*%
%TA.AperFunction,ComponentPad*%
%ADD13R,1.600000X1.600000*%
%TD*%
%TA.AperFunction,ComponentPad*%
%ADD14C,1.600000*%
%TD*%
%TA.AperFunction,ComponentPad*%
%ADD15R,3.200000X3.200000*%
%TD*%
%TA.AperFunction,ComponentPad*%
%ADD16O,3.200000X3.200000*%
%TD*%
%TA.AperFunction,ComponentPad*%
%ADD17R,2.200000X2.200000*%
%TD*%
%TA.AperFunction,ComponentPad*%
%ADD18O,2.200000X2.200000*%
%TD*%
%TA.AperFunction,ComponentPad*%
%ADD19C,1.400000*%
%TD*%
%TA.AperFunction,ComponentPad*%
%ADD20O,1.400000X1.400000*%
%TD*%
%TA.AperFunction,SMDPad,CuDef*%
%ADD21R,0.700000X1.825000*%
%TD*%
%TA.AperFunction,SMDPad,CuDef*%
%ADD22R,1.500000X2.000000*%
%TD*%
%TA.AperFunction,SMDPad,CuDef*%
%ADD23R,2.000000X1.350000*%
%TD*%
%TA.AperFunction,ComponentPad*%
%ADD24O,1.700000X1.350000*%
%TD*%
%TA.AperFunction,ComponentPad*%
%ADD25O,1.500000X1.100000*%
%TD*%
%TA.AperFunction,SMDPad,CuDef*%
%ADD26R,2.500000X1.430000*%
%TD*%
%TA.AperFunction,SMDPad,CuDef*%
%ADD27R,1.650000X0.400000*%
%TD*%
%TA.AperFunction,ComponentPad*%
%ADD28RoundRect,0.250000X-0.725000X0.600000X-0.725000X-0.600000X0.725000X-0.600000X0.725000X0.600000X0*%
%TD*%
%TA.AperFunction,ComponentPad*%
%ADD29R,2.000000X2.000000*%
%TD*%
%TA.AperFunction,ComponentPad*%
%ADD30C,2.000000*%
%TD*%
%TA.AperFunction,ComponentPad*%
%ADD31O,2.800000X1.400000*%
%TD*%
%TA.AperFunction,ComponentPad*%
%ADD32O,1.600000X1.600000*%
%TD*%
%TA.AperFunction,ComponentPad*%
%ADD33RoundRect,0.250000X-0.750000X0.600000X-0.750000X-0.600000X0.750000X-0.600000X0.750000X0.600000X0*%
%TD*%
%TA.AperFunction,ComponentPad*%
%ADD34O,2.000000X1.700000*%
%TD*%
%TA.AperFunction,Conductor*%
%ADD35C,0.250000*%
%TD*%
G04 APERTURE END LIST*
D10*
%TO.P,GPIOSOLENOID1,1,Pin_1*%
%TO.N,Net-(GPIOSOLENOID1-Pin_1)*%
X28000000Y-44000000D03*
D11*
%TO.P,GPIOSOLENOID1,2,Pin_2*%
%TO.N,Net-(GPIOSOLENOID1-Pin_2)*%
X28000000Y-41500000D03*
%TO.P,GPIOSOLENOID1,3,Pin_3*%
%TO.N,Net-(GPIOSOLENOID1-Pin_3)*%
X28000000Y-39000000D03*
%TO.P,GPIOSOLENOID1,4,Pin_4*%
%TO.N,GND*%
X28000000Y-36500000D03*
%TD*%
D12*
%TO.P,L1,1,1*%
%TO.N,+5V*%
X74500000Y-39500000D03*
%TO.P,L1,2,2*%
%TO.N,Net-(D1-A)*%
X74500000Y-34500000D03*
%TD*%
D10*
%TO.P,GPIOSERVO1,1,Pin_1*%
%TO.N,GND*%
X41000000Y-61000000D03*
D11*
%TO.P,GPIOSERVO1,2,Pin_2*%
%TO.N,Net-(GPIOSERVO1-Pin_2)*%
X41000000Y-58500000D03*
%TO.P,GPIOSERVO1,3,Pin_3*%
%TO.N,Net-(GPIOSERVO1-Pin_3)*%
X41000000Y-56000000D03*
%TD*%
D13*
%TO.P,C2,1*%
%TO.N,+5V*%
X41205113Y-34500000D03*
D14*
%TO.P,C2,2*%
%TO.N,GND*%
X38705113Y-34500000D03*
%TD*%
D15*
%TO.P,D1,1,K*%
%TO.N,+12V*%
X91000000Y-28500000D03*
D16*
%TO.P,D1,2,A*%
%TO.N,Net-(D1-A)*%
X75760000Y-28500000D03*
%TD*%
D17*
%TO.P,D2,1,K*%
%TO.N,Net-(D2-K)*%
X121000000Y-38500000D03*
D18*
%TO.P,D2,2,A*%
%TO.N,Net-(D2-A)*%
X110840000Y-38500000D03*
%TD*%
D19*
%TO.P,R6,1*%
%TO.N,Net-(GPIOINPUT1-Pin_4)*%
X64380000Y-59000000D03*
D20*
%TO.P,R6,2*%
%TO.N,Net-(RGBLED1-Pin_3)*%
X72000000Y-59000000D03*
%TD*%
D21*
%TO.P,J4,6,Shield*%
%TO.N,unconnected-(J4-Shield-Pad6)*%
X28680000Y-29270000D03*
D22*
X30000000Y-29170000D03*
D23*
X27930000Y-29020000D03*
D24*
X27000000Y-29000000D03*
D25*
X30000000Y-28690000D03*
D26*
X26730000Y-27230000D03*
X26730000Y-25310000D03*
D25*
X30000000Y-23850000D03*
D24*
X27000000Y-23540000D03*
D23*
X27930000Y-23540000D03*
D22*
X29980000Y-23420000D03*
D21*
X28680000Y-23320000D03*
D27*
%TO.P,J4,5,GND*%
%TO.N,GND*%
X29880000Y-27570000D03*
%TO.P,J4,4,ID*%
%TO.N,unconnected-(J4-ID-Pad4)*%
X29880000Y-26920000D03*
%TO.P,J4,3,D+*%
%TO.N,unconnected-(J4-D+-Pad3)*%
X29880000Y-26270000D03*
%TO.P,J4,2,D-*%
%TO.N,unconnected-(J4-D--Pad2)*%
X29880000Y-25620000D03*
%TO.P,J4,1,VBUS*%
%TO.N,+5V*%
X29880000Y-24970000D03*
%TD*%
D13*
%TO.P,C1,1*%
%TO.N,Net-(C1-Pad1)*%
X41000000Y-27000000D03*
D14*
%TO.P,C1,2*%
%TO.N,GND*%
X38500000Y-27000000D03*
%TD*%
D19*
%TO.P,R5,1*%
%TO.N,Net-(RGBLED1-Pin_2)*%
X72000000Y-53500000D03*
D20*
%TO.P,R5,2*%
%TO.N,Net-(GPIOINPUT1-Pin_5)*%
X64380000Y-53500000D03*
%TD*%
D28*
%TO.P,UltrasonicSensor1,1,Pin_1*%
%TO.N,GND*%
X104500000Y-41500000D03*
D11*
%TO.P,UltrasonicSensor1,2,Pin_2*%
%TO.N,Net-(GPIOINPUT1-Pin_1)*%
X104500000Y-44000000D03*
%TO.P,UltrasonicSensor1,3,Pin_3*%
%TO.N,Net-(GPIOINPUT1-Pin_2)*%
X104500000Y-46500000D03*
%TO.P,UltrasonicSensor1,4,Pin_4*%
%TO.N,+5V*%
X104500000Y-49000000D03*
%TD*%
D28*
%TO.P,Servo1,1,Pin_1*%
%TO.N,Net-(GPIOSERVO1-Pin_2)*%
X116000000Y-55500000D03*
D11*
%TO.P,Servo1,2,Pin_2*%
%TO.N,+5V*%
X116000000Y-58000000D03*
%TO.P,Servo1,3,Pin_3*%
%TO.N,GND*%
X116000000Y-60500000D03*
%TD*%
D19*
%TO.P,R3,1*%
%TO.N,Net-(U1-COMP)*%
X54810000Y-26000000D03*
D20*
%TO.P,R3,2*%
%TO.N,Net-(C1-Pad1)*%
X47190000Y-26000000D03*
%TD*%
D10*
%TO.P,GPIOINPUT1,1,Pin_1*%
%TO.N,Net-(GPIOINPUT1-Pin_1)*%
X28000000Y-63000000D03*
D11*
%TO.P,GPIOINPUT1,2,Pin_2*%
%TO.N,Net-(GPIOINPUT1-Pin_2)*%
X28000000Y-60500000D03*
%TO.P,GPIOINPUT1,3,Pin_3*%
%TO.N,Net-(GPIOINPUT1-Pin_3)*%
X28000000Y-58000000D03*
%TO.P,GPIOINPUT1,4,Pin_4*%
%TO.N,Net-(GPIOINPUT1-Pin_4)*%
X28000000Y-55500000D03*
%TO.P,GPIOINPUT1,5,Pin_5*%
%TO.N,Net-(GPIOINPUT1-Pin_5)*%
X28000000Y-53000000D03*
%TO.P,GPIOINPUT1,6,Pin_6*%
%TO.N,Net-(GPIOINPUT1-Pin_6)*%
X28000000Y-50500000D03*
%TD*%
D28*
%TO.P,Servo2,1,Pin_1*%
%TO.N,Net-(GPIOSERVO1-Pin_3)*%
X105000000Y-55500000D03*
D11*
%TO.P,Servo2,2,Pin_2*%
%TO.N,+5V*%
X105000000Y-58000000D03*
%TO.P,Servo2,3,Pin_3*%
%TO.N,GND*%
X105000000Y-60500000D03*
%TD*%
D29*
%TO.P,C3,1*%
%TO.N,+12V*%
X85500000Y-35632323D03*
D30*
%TO.P,C3,2*%
%TO.N,GND*%
X85500000Y-40632323D03*
%TD*%
D28*
%TO.P,RGBLED1,1,Pin_1*%
%TO.N,Net-(RGBLED1-Pin_1)*%
X97000000Y-53000000D03*
D11*
%TO.P,RGBLED1,2,Pin_2*%
%TO.N,Net-(RGBLED1-Pin_2)*%
X97000000Y-55500000D03*
%TO.P,RGBLED1,3,Pin_3*%
%TO.N,Net-(RGBLED1-Pin_3)*%
X97000000Y-58000000D03*
%TO.P,RGBLED1,4,Pin_4*%
%TO.N,Net-(GPIOINPUT1-Pin_3)*%
X97000000Y-60500000D03*
%TD*%
D31*
%TO.P,U1,1,COMP*%
%TO.N,Net-(U1-COMP)*%
X65000000Y-26000000D03*
%TO.P,U1,2,FEEDBACK*%
%TO.N,Net-(U1-FEEDBACK)*%
X65000000Y-27700000D03*
%TO.P,U1,3,GROUND*%
%TO.N,GND*%
X65000000Y-29400000D03*
%TO.P,U1,4,SWITCH*%
%TO.N,Net-(D1-A)*%
X65000000Y-31100000D03*
%TO.P,U1,5,VIN*%
%TO.N,+5V*%
X65000000Y-32800000D03*
%TD*%
D19*
%TO.P,R1,1*%
%TO.N,+12V*%
X87500000Y-24000000D03*
D20*
%TO.P,R1,2*%
%TO.N,Net-(U1-FEEDBACK)*%
X79880000Y-24000000D03*
%TD*%
D19*
%TO.P,R2,1*%
%TO.N,Net-(U1-FEEDBACK)*%
X49000000Y-31000000D03*
D20*
%TO.P,R2,2*%
%TO.N,GND*%
X56620000Y-31000000D03*
%TD*%
D13*
%TO.P,U2,1,EN1\u002C2*%
%TO.N,Net-(GPIOSOLENOID1-Pin_3)*%
X101125000Y-32800000D03*
D32*
%TO.P,U2,2,1A*%
%TO.N,Net-(GPIOSOLENOID1-Pin_1)*%
X103665000Y-32800000D03*
%TO.P,U2,3,1Y*%
%TO.N,Net-(D2-A)*%
X106205000Y-32800000D03*
%TO.P,U2,4,GND*%
%TO.N,GND*%
X108745000Y-32800000D03*
%TO.P,U2,5,GND*%
X111285000Y-32800000D03*
%TO.P,U2,6,2Y*%
%TO.N,Net-(D2-K)*%
X113825000Y-32800000D03*
%TO.P,U2,7,2A*%
%TO.N,Net-(GPIOSOLENOID1-Pin_2)*%
X116365000Y-32800000D03*
%TO.P,U2,8,VCC2*%
%TO.N,+12V*%
X118905000Y-32800000D03*
%TO.P,U2,9,EN3\u002C4*%
%TO.N,GND*%
X118905000Y-25180000D03*
%TO.P,U2,10,3A*%
X116365000Y-25180000D03*
%TO.P,U2,11,3Y*%
X113825000Y-25180000D03*
%TO.P,U2,12,GND*%
X111285000Y-25180000D03*
%TO.P,U2,13,GND*%
X108745000Y-25180000D03*
%TO.P,U2,14,4Y*%
X106205000Y-25180000D03*
%TO.P,U2,15,4A*%
X103665000Y-25180000D03*
%TO.P,U2,16,VCC1*%
%TO.N,+12V*%
X101125000Y-25180000D03*
%TD*%
D19*
%TO.P,R4,1*%
%TO.N,Net-(GPIOINPUT1-Pin_6)*%
X64880000Y-49000000D03*
D20*
%TO.P,R4,2*%
%TO.N,Net-(RGBLED1-Pin_1)*%
X72500000Y-49000000D03*
%TD*%
D33*
%TO.P,SOLENOID1,1,Pin_1*%
%TO.N,Net-(D2-K)*%
X121000000Y-46500000D03*
D34*
%TO.P,SOLENOID1,2,Pin_2*%
%TO.N,Net-(D2-A)*%
X121000000Y-49000000D03*
%TD*%
D35*
%TO.N,GND*%
X38705113Y-34500000D02*
X31775113Y-27570000D01*
X31775113Y-27570000D02*
X29880000Y-27570000D01*
%TO.N,+5V*%
X65000000Y-32800000D02*
X42800000Y-32800000D01*
X42800000Y-32800000D02*
X41000000Y-31000000D01*
X41000000Y-31000000D02*
X38500000Y-31000000D01*
X38500000Y-31000000D02*
X32470000Y-24970000D01*
X32470000Y-24970000D02*
X29880000Y-24970000D01*
X105000000Y-58000000D02*
X106500000Y-58000000D01*
X108500000Y-56000000D02*
X108500000Y-51000000D01*
X106500000Y-58000000D02*
X108500000Y-56000000D01*
X108500000Y-51000000D02*
X106500000Y-49000000D01*
X106500000Y-49000000D02*
X104500000Y-49000000D01*
X105000000Y-58000000D02*
X116000000Y-58000000D01*
%TO.N,+12V*%
X91000000Y-28500000D02*
X91000000Y-26500000D01*
X118905000Y-32800000D02*
X117780000Y-31675000D01*
X91000000Y-28500000D02*
X97805000Y-28500000D01*
X85500000Y-35632323D02*
X87867677Y-35632323D01*
X97805000Y-28500000D02*
X101125000Y-25180000D01*
X87867677Y-35632323D02*
X91000000Y-32500000D01*
X88500000Y-24000000D02*
X87500000Y-24000000D01*
X117780000Y-31675000D02*
X107620000Y-31675000D01*
X107620000Y-31675000D02*
X101125000Y-25180000D01*
X91000000Y-32500000D02*
X91000000Y-28500000D01*
X91000000Y-26500000D02*
X88500000Y-24000000D01*
%TO.N,Net-(D1-A)*%
X71100000Y-31100000D02*
X65000000Y-31100000D01*
X75760000Y-28500000D02*
X75760000Y-33240000D01*
X74500000Y-34500000D02*
X71100000Y-31100000D01*
X75760000Y-33240000D02*
X74500000Y-34500000D01*
%TO.N,Net-(C1-Pad1)*%
X41000000Y-27000000D02*
X46190000Y-27000000D01*
X46190000Y-27000000D02*
X47190000Y-26000000D01*
%TO.N,+5V*%
X63800000Y-34000000D02*
X65000000Y-32800000D01*
X67800000Y-32800000D02*
X74500000Y-39500000D01*
X65000000Y-32800000D02*
X67800000Y-32800000D01*
X41705113Y-34000000D02*
X63800000Y-34000000D01*
%TO.N,Net-(U1-FEEDBACK)*%
X66800000Y-27700000D02*
X65000000Y-27700000D01*
X70500000Y-24000000D02*
X79880000Y-24000000D01*
X70500000Y-24000000D02*
X66800000Y-27700000D01*
%TO.N,Net-(U1-COMP)*%
X54810000Y-26000000D02*
X65000000Y-26000000D01*
%TO.N,GND*%
X100000000Y-65500000D02*
X105000000Y-60500000D01*
X45500000Y-65500000D02*
X100000000Y-65500000D01*
X40900000Y-29400000D02*
X38500000Y-27000000D01*
X41000000Y-61000000D02*
X45500000Y-65500000D01*
X65000000Y-29400000D02*
X40900000Y-29400000D01*
%TO.N,Net-(D2-K)*%
X121000000Y-38500000D02*
X119525000Y-38500000D01*
X121000000Y-46500000D02*
X121000000Y-38500000D01*
X119525000Y-38500000D02*
X113825000Y-32800000D01*
%TO.N,Net-(D2-A)*%
X110840000Y-37435000D02*
X110840000Y-38500000D01*
X110840000Y-38500000D02*
X110840000Y-38840000D01*
X106205000Y-32800000D02*
X110840000Y-37435000D01*
X110840000Y-38840000D02*
X121000000Y-49000000D01*
%TO.N,Net-(GPIOSOLENOID1-Pin_3)*%
X45000000Y-36000000D02*
X66000000Y-36000000D01*
X95425000Y-38500000D02*
X101125000Y-32800000D01*
X82000000Y-38500000D02*
X95425000Y-38500000D01*
X71125000Y-41125000D02*
X79375000Y-41125000D01*
X28000000Y-39000000D02*
X42000000Y-39000000D01*
X66000000Y-36000000D02*
X71125000Y-41125000D01*
X79375000Y-41125000D02*
X82000000Y-38500000D01*
X42000000Y-39000000D02*
X45000000Y-36000000D01*
%TO.N,Net-(RGBLED1-Pin_2)*%
X72000000Y-53500000D02*
X95000000Y-53500000D01*
X95000000Y-53500000D02*
X97000000Y-55500000D01*
%TO.N,Net-(RGBLED1-Pin_1)*%
X92286701Y-49000000D02*
X96286701Y-53000000D01*
X72500000Y-49000000D02*
X92286701Y-49000000D01*
X96286701Y-53000000D02*
X97000000Y-53000000D01*
%TO.N,Net-(GPIOINPUT1-Pin_2)*%
X121050000Y-55050000D02*
X121050000Y-65500000D01*
X120000000Y-66550000D02*
X34550000Y-66550000D01*
X112500000Y-46500000D02*
X121050000Y-55050000D01*
X104500000Y-46500000D02*
X112500000Y-46500000D01*
X121050000Y-65500000D02*
X120000000Y-66550000D01*
X28500000Y-60500000D02*
X28000000Y-60500000D01*
X34550000Y-66550000D02*
X28500000Y-60500000D01*
%TO.N,Net-(GPIOINPUT1-Pin_3)*%
X45000000Y-53000000D02*
X50500000Y-58500000D01*
X34000000Y-58000000D02*
X39000000Y-53000000D01*
X50500000Y-64000000D02*
X51050000Y-64550000D01*
X50500000Y-58500000D02*
X50500000Y-64000000D01*
X92950000Y-64550000D02*
X97000000Y-60500000D01*
X28000000Y-58000000D02*
X34000000Y-58000000D01*
X51050000Y-64550000D02*
X92950000Y-64550000D01*
X39000000Y-53000000D02*
X45000000Y-53000000D01*
%TO.N,Net-(GPIOINPUT1-Pin_4)*%
X64380000Y-59000000D02*
X51636396Y-59000000D01*
X51636396Y-59000000D02*
X51568198Y-58931802D01*
X38500000Y-52500000D02*
X45136396Y-52500000D01*
X45136396Y-52500000D02*
X51568198Y-58931802D01*
X28000000Y-55500000D02*
X35500000Y-55500000D01*
X35500000Y-55500000D02*
X38500000Y-52500000D01*
%TO.N,Net-(GPIOINPUT1-Pin_5)*%
X47000000Y-53500000D02*
X64380000Y-53500000D01*
X38000000Y-52000000D02*
X45500000Y-52000000D01*
X28000000Y-53000000D02*
X37000000Y-53000000D01*
X37000000Y-53000000D02*
X38000000Y-52000000D01*
X45500000Y-52000000D02*
X47000000Y-53500000D01*
%TO.N,Net-(GPIOINPUT1-Pin_6)*%
X35500000Y-49000000D02*
X34000000Y-50500000D01*
X64880000Y-49000000D02*
X35500000Y-49000000D01*
X28000000Y-50500000D02*
X34000000Y-50500000D01*
%TO.N,Net-(GPIOSERVO1-Pin_2)*%
X120600000Y-56500000D02*
X120600000Y-65313604D01*
X36500000Y-61000000D02*
X39000000Y-58500000D01*
X119913604Y-66000000D02*
X39000000Y-66000000D01*
X39000000Y-58500000D02*
X41000000Y-58500000D01*
X119600000Y-55500000D02*
X120600000Y-56500000D01*
X39000000Y-66000000D02*
X36500000Y-63500000D01*
X36500000Y-63500000D02*
X36500000Y-61000000D01*
X116000000Y-55500000D02*
X119600000Y-55500000D01*
X120600000Y-65313604D02*
X119913604Y-66000000D01*
%TO.N,Net-(GPIOSERVO1-Pin_3)*%
X102500000Y-58000000D02*
X105000000Y-55500000D01*
X47500000Y-65000000D02*
X99500000Y-65000000D01*
X46500000Y-64000000D02*
X47500000Y-65000000D01*
X99500000Y-65000000D02*
X102500000Y-62000000D01*
X102500000Y-62000000D02*
X102500000Y-58000000D01*
X46500000Y-61500000D02*
X46500000Y-64000000D01*
X41000000Y-56000000D02*
X46500000Y-61500000D01*
%TO.N,Net-(RGBLED1-Pin_3)*%
X72000000Y-59000000D02*
X96000000Y-59000000D01*
X96000000Y-59000000D02*
X97000000Y-58000000D01*
%TD*%
M02*
