%TF.GenerationSoftware,KiCad,Pcbnew,8.0.1*%
%TF.CreationDate,2024-03-22T20:00:45-04:00*%
%TF.ProjectId,PowerBoost_PCB,506f7765-7242-46f6-9f73-745f5043422e,rev?*%
%TF.SameCoordinates,Original*%
%TF.FileFunction,Soldermask,Bot*%
%TF.FilePolarity,Negative*%
%FSLAX46Y46*%
G04 Gerber Fmt 4.6, Leading zero omitted, Abs format (unit mm)*
G04 Created by KiCad (PCBNEW 8.0.1) date 2024-03-22 20:00:45*
%MOMM*%
%LPD*%
G01*
G04 APERTURE LIST*
G04 Aperture macros list*
%AMRoundRect*
0 Rectangle with rounded corners*
0 $1 Rounding radius*
0 $2 $3 $4 $5 $6 $7 $8 $9 X,Y pos of 4 corners*
0 Add a 4 corners polygon primitive as box body*
4,1,4,$2,$3,$4,$5,$6,$7,$8,$9,$2,$3,0*
0 Add four circle primitives for the rounded corners*
1,1,$1+$1,$2,$3*
1,1,$1+$1,$4,$5*
1,1,$1+$1,$6,$7*
1,1,$1+$1,$8,$9*
0 Add four rect primitives between the rounded corners*
20,1,$1+$1,$2,$3,$4,$5,0*
20,1,$1+$1,$4,$5,$6,$7,0*
20,1,$1+$1,$6,$7,$8,$9,0*
20,1,$1+$1,$8,$9,$2,$3,0*%
G04 Aperture macros list end*
%ADD10RoundRect,0.250000X0.725000X-0.600000X0.725000X0.600000X-0.725000X0.600000X-0.725000X-0.600000X0*%
%ADD11O,1.950000X1.700000*%
%ADD12C,2.600000*%
%ADD13R,1.600000X1.600000*%
%ADD14C,1.600000*%
%ADD15R,3.200000X3.200000*%
%ADD16O,3.200000X3.200000*%
%ADD17R,2.200000X2.200000*%
%ADD18O,2.200000X2.200000*%
%ADD19C,1.400000*%
%ADD20O,1.400000X1.400000*%
%ADD21O,1.700000X1.350000*%
%ADD22O,1.500000X1.100000*%
%ADD23RoundRect,0.250000X-0.725000X0.600000X-0.725000X-0.600000X0.725000X-0.600000X0.725000X0.600000X0*%
%ADD24R,2.000000X2.000000*%
%ADD25C,2.000000*%
%ADD26O,3.004000X1.604000*%
%ADD27O,1.600000X1.600000*%
%ADD28RoundRect,0.250000X-0.750000X0.600000X-0.750000X-0.600000X0.750000X-0.600000X0.750000X0.600000X0*%
%ADD29O,2.000000X1.700000*%
G04 APERTURE END LIST*
D10*
%TO.C,GPIOSOLENOID1*%
X28000000Y-44000000D03*
D11*
X28000000Y-41500000D03*
X28000000Y-39000000D03*
X28000000Y-36500000D03*
%TD*%
D12*
%TO.C,L1*%
X74500000Y-39500000D03*
X74500000Y-34500000D03*
%TD*%
D10*
%TO.C,GPIOSERVO1*%
X41000000Y-61000000D03*
D11*
X41000000Y-58500000D03*
X41000000Y-56000000D03*
%TD*%
D13*
%TO.C,C2*%
X41205113Y-34500000D03*
D14*
X38705113Y-34500000D03*
%TD*%
D15*
%TO.C,D1*%
X91000000Y-28500000D03*
D16*
X75760000Y-28500000D03*
%TD*%
D17*
%TO.C,D2*%
X121000000Y-38500000D03*
D18*
X110840000Y-38500000D03*
%TD*%
D19*
%TO.C,R6*%
X64380000Y-59000000D03*
D20*
X72000000Y-59000000D03*
%TD*%
D21*
%TO.C,J4*%
X27000000Y-29000000D03*
D22*
X30000000Y-28690000D03*
X30000000Y-23850000D03*
D21*
X27000000Y-23540000D03*
%TD*%
D13*
%TO.C,C1*%
X41000000Y-27000000D03*
D14*
X38500000Y-27000000D03*
%TD*%
D19*
%TO.C,R5*%
X72000000Y-53500000D03*
D20*
X64380000Y-53500000D03*
%TD*%
D23*
%TO.C,UltrasonicSensor1*%
X104500000Y-41500000D03*
D11*
X104500000Y-44000000D03*
X104500000Y-46500000D03*
X104500000Y-49000000D03*
%TD*%
D23*
%TO.C,Servo1*%
X116000000Y-55500000D03*
D11*
X116000000Y-58000000D03*
X116000000Y-60500000D03*
%TD*%
D19*
%TO.C,R3*%
X54810000Y-26000000D03*
D20*
X47190000Y-26000000D03*
%TD*%
D10*
%TO.C,GPIOINPUT1*%
X28000000Y-63000000D03*
D11*
X28000000Y-60500000D03*
X28000000Y-58000000D03*
X28000000Y-55500000D03*
X28000000Y-53000000D03*
X28000000Y-50500000D03*
%TD*%
D23*
%TO.C,Servo2*%
X105000000Y-55500000D03*
D11*
X105000000Y-58000000D03*
X105000000Y-60500000D03*
%TD*%
D24*
%TO.C,C3*%
X85500000Y-35632323D03*
D25*
X85500000Y-40632323D03*
%TD*%
D23*
%TO.C,RGBLED1*%
X97000000Y-53000000D03*
D11*
X97000000Y-55500000D03*
X97000000Y-58000000D03*
X97000000Y-60500000D03*
%TD*%
D26*
%TO.C,U1*%
X65000000Y-26000000D03*
X65000000Y-27700000D03*
X65000000Y-29400000D03*
X65000000Y-31100000D03*
X65000000Y-32800000D03*
%TD*%
D19*
%TO.C,R1*%
X87500000Y-24000000D03*
D20*
X79880000Y-24000000D03*
%TD*%
D19*
%TO.C,R2*%
X49000000Y-31000000D03*
D20*
X56620000Y-31000000D03*
%TD*%
D13*
%TO.C,U2*%
X101125000Y-32800000D03*
D27*
X103665000Y-32800000D03*
X106205000Y-32800000D03*
X108745000Y-32800000D03*
X111285000Y-32800000D03*
X113825000Y-32800000D03*
X116365000Y-32800000D03*
X118905000Y-32800000D03*
X118905000Y-25180000D03*
X116365000Y-25180000D03*
X113825000Y-25180000D03*
X111285000Y-25180000D03*
X108745000Y-25180000D03*
X106205000Y-25180000D03*
X103665000Y-25180000D03*
X101125000Y-25180000D03*
%TD*%
D19*
%TO.C,R4*%
X64880000Y-49000000D03*
D20*
X72500000Y-49000000D03*
%TD*%
D28*
%TO.C,SOLENOID1*%
X121000000Y-46500000D03*
D29*
X121000000Y-49000000D03*
%TD*%
M02*
