%TF.GenerationSoftware,KiCad,Pcbnew,8.0.1*%
%TF.CreationDate,2024-03-22T20:00:45-04:00*%
%TF.ProjectId,PowerBoost_PCB,506f7765-7242-46f6-9f73-745f5043422e,rev?*%
%TF.SameCoordinates,Original*%
%TF.FileFunction,Legend,Top*%
%TF.FilePolarity,Positive*%
%FSLAX46Y46*%
G04 Gerber Fmt 4.6, Leading zero omitted, Abs format (unit mm)*
G04 Created by KiCad (PCBNEW 8.0.1) date 2024-03-22 20:00:45*
%MOMM*%
%LPD*%
G01*
G04 APERTURE LIST*
%ADD10C,0.150000*%
%ADD11C,0.120000*%
%ADD12C,0.127000*%
%ADD13C,0.200000*%
G04 APERTURE END LIST*
D10*
X24702438Y-45369047D02*
X24654819Y-45464285D01*
X24654819Y-45464285D02*
X24654819Y-45607142D01*
X24654819Y-45607142D02*
X24702438Y-45749999D01*
X24702438Y-45749999D02*
X24797676Y-45845237D01*
X24797676Y-45845237D02*
X24892914Y-45892856D01*
X24892914Y-45892856D02*
X25083390Y-45940475D01*
X25083390Y-45940475D02*
X25226247Y-45940475D01*
X25226247Y-45940475D02*
X25416723Y-45892856D01*
X25416723Y-45892856D02*
X25511961Y-45845237D01*
X25511961Y-45845237D02*
X25607200Y-45749999D01*
X25607200Y-45749999D02*
X25654819Y-45607142D01*
X25654819Y-45607142D02*
X25654819Y-45511904D01*
X25654819Y-45511904D02*
X25607200Y-45369047D01*
X25607200Y-45369047D02*
X25559580Y-45321428D01*
X25559580Y-45321428D02*
X25226247Y-45321428D01*
X25226247Y-45321428D02*
X25226247Y-45511904D01*
X25654819Y-44892856D02*
X24654819Y-44892856D01*
X24654819Y-44892856D02*
X24654819Y-44511904D01*
X24654819Y-44511904D02*
X24702438Y-44416666D01*
X24702438Y-44416666D02*
X24750057Y-44369047D01*
X24750057Y-44369047D02*
X24845295Y-44321428D01*
X24845295Y-44321428D02*
X24988152Y-44321428D01*
X24988152Y-44321428D02*
X25083390Y-44369047D01*
X25083390Y-44369047D02*
X25131009Y-44416666D01*
X25131009Y-44416666D02*
X25178628Y-44511904D01*
X25178628Y-44511904D02*
X25178628Y-44892856D01*
X25654819Y-43892856D02*
X24654819Y-43892856D01*
X24654819Y-43226190D02*
X24654819Y-43035714D01*
X24654819Y-43035714D02*
X24702438Y-42940476D01*
X24702438Y-42940476D02*
X24797676Y-42845238D01*
X24797676Y-42845238D02*
X24988152Y-42797619D01*
X24988152Y-42797619D02*
X25321485Y-42797619D01*
X25321485Y-42797619D02*
X25511961Y-42845238D01*
X25511961Y-42845238D02*
X25607200Y-42940476D01*
X25607200Y-42940476D02*
X25654819Y-43035714D01*
X25654819Y-43035714D02*
X25654819Y-43226190D01*
X25654819Y-43226190D02*
X25607200Y-43321428D01*
X25607200Y-43321428D02*
X25511961Y-43416666D01*
X25511961Y-43416666D02*
X25321485Y-43464285D01*
X25321485Y-43464285D02*
X24988152Y-43464285D01*
X24988152Y-43464285D02*
X24797676Y-43416666D01*
X24797676Y-43416666D02*
X24702438Y-43321428D01*
X24702438Y-43321428D02*
X24654819Y-43226190D01*
X25607200Y-42416666D02*
X25654819Y-42273809D01*
X25654819Y-42273809D02*
X25654819Y-42035714D01*
X25654819Y-42035714D02*
X25607200Y-41940476D01*
X25607200Y-41940476D02*
X25559580Y-41892857D01*
X25559580Y-41892857D02*
X25464342Y-41845238D01*
X25464342Y-41845238D02*
X25369104Y-41845238D01*
X25369104Y-41845238D02*
X25273866Y-41892857D01*
X25273866Y-41892857D02*
X25226247Y-41940476D01*
X25226247Y-41940476D02*
X25178628Y-42035714D01*
X25178628Y-42035714D02*
X25131009Y-42226190D01*
X25131009Y-42226190D02*
X25083390Y-42321428D01*
X25083390Y-42321428D02*
X25035771Y-42369047D01*
X25035771Y-42369047D02*
X24940533Y-42416666D01*
X24940533Y-42416666D02*
X24845295Y-42416666D01*
X24845295Y-42416666D02*
X24750057Y-42369047D01*
X24750057Y-42369047D02*
X24702438Y-42321428D01*
X24702438Y-42321428D02*
X24654819Y-42226190D01*
X24654819Y-42226190D02*
X24654819Y-41988095D01*
X24654819Y-41988095D02*
X24702438Y-41845238D01*
X24654819Y-41226190D02*
X24654819Y-41035714D01*
X24654819Y-41035714D02*
X24702438Y-40940476D01*
X24702438Y-40940476D02*
X24797676Y-40845238D01*
X24797676Y-40845238D02*
X24988152Y-40797619D01*
X24988152Y-40797619D02*
X25321485Y-40797619D01*
X25321485Y-40797619D02*
X25511961Y-40845238D01*
X25511961Y-40845238D02*
X25607200Y-40940476D01*
X25607200Y-40940476D02*
X25654819Y-41035714D01*
X25654819Y-41035714D02*
X25654819Y-41226190D01*
X25654819Y-41226190D02*
X25607200Y-41321428D01*
X25607200Y-41321428D02*
X25511961Y-41416666D01*
X25511961Y-41416666D02*
X25321485Y-41464285D01*
X25321485Y-41464285D02*
X24988152Y-41464285D01*
X24988152Y-41464285D02*
X24797676Y-41416666D01*
X24797676Y-41416666D02*
X24702438Y-41321428D01*
X24702438Y-41321428D02*
X24654819Y-41226190D01*
X25654819Y-39892857D02*
X25654819Y-40369047D01*
X25654819Y-40369047D02*
X24654819Y-40369047D01*
X25131009Y-39559523D02*
X25131009Y-39226190D01*
X25654819Y-39083333D02*
X25654819Y-39559523D01*
X25654819Y-39559523D02*
X24654819Y-39559523D01*
X24654819Y-39559523D02*
X24654819Y-39083333D01*
X25654819Y-38654761D02*
X24654819Y-38654761D01*
X24654819Y-38654761D02*
X25654819Y-38083333D01*
X25654819Y-38083333D02*
X24654819Y-38083333D01*
X24654819Y-37416666D02*
X24654819Y-37226190D01*
X24654819Y-37226190D02*
X24702438Y-37130952D01*
X24702438Y-37130952D02*
X24797676Y-37035714D01*
X24797676Y-37035714D02*
X24988152Y-36988095D01*
X24988152Y-36988095D02*
X25321485Y-36988095D01*
X25321485Y-36988095D02*
X25511961Y-37035714D01*
X25511961Y-37035714D02*
X25607200Y-37130952D01*
X25607200Y-37130952D02*
X25654819Y-37226190D01*
X25654819Y-37226190D02*
X25654819Y-37416666D01*
X25654819Y-37416666D02*
X25607200Y-37511904D01*
X25607200Y-37511904D02*
X25511961Y-37607142D01*
X25511961Y-37607142D02*
X25321485Y-37654761D01*
X25321485Y-37654761D02*
X24988152Y-37654761D01*
X24988152Y-37654761D02*
X24797676Y-37607142D01*
X24797676Y-37607142D02*
X24702438Y-37511904D01*
X24702438Y-37511904D02*
X24654819Y-37416666D01*
X25654819Y-36559523D02*
X24654819Y-36559523D01*
X25654819Y-36083333D02*
X24654819Y-36083333D01*
X24654819Y-36083333D02*
X24654819Y-35845238D01*
X24654819Y-35845238D02*
X24702438Y-35702381D01*
X24702438Y-35702381D02*
X24797676Y-35607143D01*
X24797676Y-35607143D02*
X24892914Y-35559524D01*
X24892914Y-35559524D02*
X25083390Y-35511905D01*
X25083390Y-35511905D02*
X25226247Y-35511905D01*
X25226247Y-35511905D02*
X25416723Y-35559524D01*
X25416723Y-35559524D02*
X25511961Y-35607143D01*
X25511961Y-35607143D02*
X25607200Y-35702381D01*
X25607200Y-35702381D02*
X25654819Y-35845238D01*
X25654819Y-35845238D02*
X25654819Y-36083333D01*
X25654819Y-34559524D02*
X25654819Y-35130952D01*
X25654819Y-34845238D02*
X24654819Y-34845238D01*
X24654819Y-34845238D02*
X24797676Y-34940476D01*
X24797676Y-34940476D02*
X24892914Y-35035714D01*
X24892914Y-35035714D02*
X24940533Y-35130952D01*
X69354819Y-37166666D02*
X69354819Y-37642856D01*
X69354819Y-37642856D02*
X68354819Y-37642856D01*
X69354819Y-36309523D02*
X69354819Y-36880951D01*
X69354819Y-36595237D02*
X68354819Y-36595237D01*
X68354819Y-36595237D02*
X68497676Y-36690475D01*
X68497676Y-36690475D02*
X68592914Y-36785713D01*
X68592914Y-36785713D02*
X68640533Y-36880951D01*
X37702438Y-62357142D02*
X37654819Y-62452380D01*
X37654819Y-62452380D02*
X37654819Y-62595237D01*
X37654819Y-62595237D02*
X37702438Y-62738094D01*
X37702438Y-62738094D02*
X37797676Y-62833332D01*
X37797676Y-62833332D02*
X37892914Y-62880951D01*
X37892914Y-62880951D02*
X38083390Y-62928570D01*
X38083390Y-62928570D02*
X38226247Y-62928570D01*
X38226247Y-62928570D02*
X38416723Y-62880951D01*
X38416723Y-62880951D02*
X38511961Y-62833332D01*
X38511961Y-62833332D02*
X38607200Y-62738094D01*
X38607200Y-62738094D02*
X38654819Y-62595237D01*
X38654819Y-62595237D02*
X38654819Y-62499999D01*
X38654819Y-62499999D02*
X38607200Y-62357142D01*
X38607200Y-62357142D02*
X38559580Y-62309523D01*
X38559580Y-62309523D02*
X38226247Y-62309523D01*
X38226247Y-62309523D02*
X38226247Y-62499999D01*
X38654819Y-61880951D02*
X37654819Y-61880951D01*
X37654819Y-61880951D02*
X37654819Y-61499999D01*
X37654819Y-61499999D02*
X37702438Y-61404761D01*
X37702438Y-61404761D02*
X37750057Y-61357142D01*
X37750057Y-61357142D02*
X37845295Y-61309523D01*
X37845295Y-61309523D02*
X37988152Y-61309523D01*
X37988152Y-61309523D02*
X38083390Y-61357142D01*
X38083390Y-61357142D02*
X38131009Y-61404761D01*
X38131009Y-61404761D02*
X38178628Y-61499999D01*
X38178628Y-61499999D02*
X38178628Y-61880951D01*
X38654819Y-60880951D02*
X37654819Y-60880951D01*
X37654819Y-60214285D02*
X37654819Y-60023809D01*
X37654819Y-60023809D02*
X37702438Y-59928571D01*
X37702438Y-59928571D02*
X37797676Y-59833333D01*
X37797676Y-59833333D02*
X37988152Y-59785714D01*
X37988152Y-59785714D02*
X38321485Y-59785714D01*
X38321485Y-59785714D02*
X38511961Y-59833333D01*
X38511961Y-59833333D02*
X38607200Y-59928571D01*
X38607200Y-59928571D02*
X38654819Y-60023809D01*
X38654819Y-60023809D02*
X38654819Y-60214285D01*
X38654819Y-60214285D02*
X38607200Y-60309523D01*
X38607200Y-60309523D02*
X38511961Y-60404761D01*
X38511961Y-60404761D02*
X38321485Y-60452380D01*
X38321485Y-60452380D02*
X37988152Y-60452380D01*
X37988152Y-60452380D02*
X37797676Y-60404761D01*
X37797676Y-60404761D02*
X37702438Y-60309523D01*
X37702438Y-60309523D02*
X37654819Y-60214285D01*
X38607200Y-59404761D02*
X38654819Y-59261904D01*
X38654819Y-59261904D02*
X38654819Y-59023809D01*
X38654819Y-59023809D02*
X38607200Y-58928571D01*
X38607200Y-58928571D02*
X38559580Y-58880952D01*
X38559580Y-58880952D02*
X38464342Y-58833333D01*
X38464342Y-58833333D02*
X38369104Y-58833333D01*
X38369104Y-58833333D02*
X38273866Y-58880952D01*
X38273866Y-58880952D02*
X38226247Y-58928571D01*
X38226247Y-58928571D02*
X38178628Y-59023809D01*
X38178628Y-59023809D02*
X38131009Y-59214285D01*
X38131009Y-59214285D02*
X38083390Y-59309523D01*
X38083390Y-59309523D02*
X38035771Y-59357142D01*
X38035771Y-59357142D02*
X37940533Y-59404761D01*
X37940533Y-59404761D02*
X37845295Y-59404761D01*
X37845295Y-59404761D02*
X37750057Y-59357142D01*
X37750057Y-59357142D02*
X37702438Y-59309523D01*
X37702438Y-59309523D02*
X37654819Y-59214285D01*
X37654819Y-59214285D02*
X37654819Y-58976190D01*
X37654819Y-58976190D02*
X37702438Y-58833333D01*
X38131009Y-58404761D02*
X38131009Y-58071428D01*
X38654819Y-57928571D02*
X38654819Y-58404761D01*
X38654819Y-58404761D02*
X37654819Y-58404761D01*
X37654819Y-58404761D02*
X37654819Y-57928571D01*
X38654819Y-56928571D02*
X38178628Y-57261904D01*
X38654819Y-57499999D02*
X37654819Y-57499999D01*
X37654819Y-57499999D02*
X37654819Y-57119047D01*
X37654819Y-57119047D02*
X37702438Y-57023809D01*
X37702438Y-57023809D02*
X37750057Y-56976190D01*
X37750057Y-56976190D02*
X37845295Y-56928571D01*
X37845295Y-56928571D02*
X37988152Y-56928571D01*
X37988152Y-56928571D02*
X38083390Y-56976190D01*
X38083390Y-56976190D02*
X38131009Y-57023809D01*
X38131009Y-57023809D02*
X38178628Y-57119047D01*
X38178628Y-57119047D02*
X38178628Y-57499999D01*
X37654819Y-56642856D02*
X38654819Y-56309523D01*
X38654819Y-56309523D02*
X37654819Y-55976190D01*
X37654819Y-55452380D02*
X37654819Y-55261904D01*
X37654819Y-55261904D02*
X37702438Y-55166666D01*
X37702438Y-55166666D02*
X37797676Y-55071428D01*
X37797676Y-55071428D02*
X37988152Y-55023809D01*
X37988152Y-55023809D02*
X38321485Y-55023809D01*
X38321485Y-55023809D02*
X38511961Y-55071428D01*
X38511961Y-55071428D02*
X38607200Y-55166666D01*
X38607200Y-55166666D02*
X38654819Y-55261904D01*
X38654819Y-55261904D02*
X38654819Y-55452380D01*
X38654819Y-55452380D02*
X38607200Y-55547618D01*
X38607200Y-55547618D02*
X38511961Y-55642856D01*
X38511961Y-55642856D02*
X38321485Y-55690475D01*
X38321485Y-55690475D02*
X37988152Y-55690475D01*
X37988152Y-55690475D02*
X37797676Y-55642856D01*
X37797676Y-55642856D02*
X37702438Y-55547618D01*
X37702438Y-55547618D02*
X37654819Y-55452380D01*
X38654819Y-54071428D02*
X38654819Y-54642856D01*
X38654819Y-54357142D02*
X37654819Y-54357142D01*
X37654819Y-54357142D02*
X37797676Y-54452380D01*
X37797676Y-54452380D02*
X37892914Y-54547618D01*
X37892914Y-54547618D02*
X37940533Y-54642856D01*
X39788446Y-38609580D02*
X39740827Y-38657200D01*
X39740827Y-38657200D02*
X39597970Y-38704819D01*
X39597970Y-38704819D02*
X39502732Y-38704819D01*
X39502732Y-38704819D02*
X39359875Y-38657200D01*
X39359875Y-38657200D02*
X39264637Y-38561961D01*
X39264637Y-38561961D02*
X39217018Y-38466723D01*
X39217018Y-38466723D02*
X39169399Y-38276247D01*
X39169399Y-38276247D02*
X39169399Y-38133390D01*
X39169399Y-38133390D02*
X39217018Y-37942914D01*
X39217018Y-37942914D02*
X39264637Y-37847676D01*
X39264637Y-37847676D02*
X39359875Y-37752438D01*
X39359875Y-37752438D02*
X39502732Y-37704819D01*
X39502732Y-37704819D02*
X39597970Y-37704819D01*
X39597970Y-37704819D02*
X39740827Y-37752438D01*
X39740827Y-37752438D02*
X39788446Y-37800057D01*
X40169399Y-37800057D02*
X40217018Y-37752438D01*
X40217018Y-37752438D02*
X40312256Y-37704819D01*
X40312256Y-37704819D02*
X40550351Y-37704819D01*
X40550351Y-37704819D02*
X40645589Y-37752438D01*
X40645589Y-37752438D02*
X40693208Y-37800057D01*
X40693208Y-37800057D02*
X40740827Y-37895295D01*
X40740827Y-37895295D02*
X40740827Y-37990533D01*
X40740827Y-37990533D02*
X40693208Y-38133390D01*
X40693208Y-38133390D02*
X40121780Y-38704819D01*
X40121780Y-38704819D02*
X40740827Y-38704819D01*
X82641905Y-32674819D02*
X82641905Y-31674819D01*
X82641905Y-31674819D02*
X82880000Y-31674819D01*
X82880000Y-31674819D02*
X83022857Y-31722438D01*
X83022857Y-31722438D02*
X83118095Y-31817676D01*
X83118095Y-31817676D02*
X83165714Y-31912914D01*
X83165714Y-31912914D02*
X83213333Y-32103390D01*
X83213333Y-32103390D02*
X83213333Y-32246247D01*
X83213333Y-32246247D02*
X83165714Y-32436723D01*
X83165714Y-32436723D02*
X83118095Y-32531961D01*
X83118095Y-32531961D02*
X83022857Y-32627200D01*
X83022857Y-32627200D02*
X82880000Y-32674819D01*
X82880000Y-32674819D02*
X82641905Y-32674819D01*
X84165714Y-32674819D02*
X83594286Y-32674819D01*
X83880000Y-32674819D02*
X83880000Y-31674819D01*
X83880000Y-31674819D02*
X83784762Y-31817676D01*
X83784762Y-31817676D02*
X83689524Y-31912914D01*
X83689524Y-31912914D02*
X83594286Y-31960533D01*
X90738095Y-31554819D02*
X90738095Y-30554819D01*
X91309523Y-31554819D02*
X90880952Y-30983390D01*
X91309523Y-30554819D02*
X90738095Y-31126247D01*
X115181905Y-41424819D02*
X115181905Y-40424819D01*
X115181905Y-40424819D02*
X115420000Y-40424819D01*
X115420000Y-40424819D02*
X115562857Y-40472438D01*
X115562857Y-40472438D02*
X115658095Y-40567676D01*
X115658095Y-40567676D02*
X115705714Y-40662914D01*
X115705714Y-40662914D02*
X115753333Y-40853390D01*
X115753333Y-40853390D02*
X115753333Y-40996247D01*
X115753333Y-40996247D02*
X115705714Y-41186723D01*
X115705714Y-41186723D02*
X115658095Y-41281961D01*
X115658095Y-41281961D02*
X115562857Y-41377200D01*
X115562857Y-41377200D02*
X115420000Y-41424819D01*
X115420000Y-41424819D02*
X115181905Y-41424819D01*
X116134286Y-40520057D02*
X116181905Y-40472438D01*
X116181905Y-40472438D02*
X116277143Y-40424819D01*
X116277143Y-40424819D02*
X116515238Y-40424819D01*
X116515238Y-40424819D02*
X116610476Y-40472438D01*
X116610476Y-40472438D02*
X116658095Y-40520057D01*
X116658095Y-40520057D02*
X116705714Y-40615295D01*
X116705714Y-40615295D02*
X116705714Y-40710533D01*
X116705714Y-40710533D02*
X116658095Y-40853390D01*
X116658095Y-40853390D02*
X116086667Y-41424819D01*
X116086667Y-41424819D02*
X116705714Y-41424819D01*
X120738095Y-41054819D02*
X120738095Y-40054819D01*
X121309523Y-41054819D02*
X120880952Y-40483390D01*
X121309523Y-40054819D02*
X120738095Y-40626247D01*
X68023333Y-57534819D02*
X67690000Y-57058628D01*
X67451905Y-57534819D02*
X67451905Y-56534819D01*
X67451905Y-56534819D02*
X67832857Y-56534819D01*
X67832857Y-56534819D02*
X67928095Y-56582438D01*
X67928095Y-56582438D02*
X67975714Y-56630057D01*
X67975714Y-56630057D02*
X68023333Y-56725295D01*
X68023333Y-56725295D02*
X68023333Y-56868152D01*
X68023333Y-56868152D02*
X67975714Y-56963390D01*
X67975714Y-56963390D02*
X67928095Y-57011009D01*
X67928095Y-57011009D02*
X67832857Y-57058628D01*
X67832857Y-57058628D02*
X67451905Y-57058628D01*
X68880476Y-56534819D02*
X68690000Y-56534819D01*
X68690000Y-56534819D02*
X68594762Y-56582438D01*
X68594762Y-56582438D02*
X68547143Y-56630057D01*
X68547143Y-56630057D02*
X68451905Y-56772914D01*
X68451905Y-56772914D02*
X68404286Y-56963390D01*
X68404286Y-56963390D02*
X68404286Y-57344342D01*
X68404286Y-57344342D02*
X68451905Y-57439580D01*
X68451905Y-57439580D02*
X68499524Y-57487200D01*
X68499524Y-57487200D02*
X68594762Y-57534819D01*
X68594762Y-57534819D02*
X68785238Y-57534819D01*
X68785238Y-57534819D02*
X68880476Y-57487200D01*
X68880476Y-57487200D02*
X68928095Y-57439580D01*
X68928095Y-57439580D02*
X68975714Y-57344342D01*
X68975714Y-57344342D02*
X68975714Y-57106247D01*
X68975714Y-57106247D02*
X68928095Y-57011009D01*
X68928095Y-57011009D02*
X68880476Y-56963390D01*
X68880476Y-56963390D02*
X68785238Y-56915771D01*
X68785238Y-56915771D02*
X68594762Y-56915771D01*
X68594762Y-56915771D02*
X68499524Y-56963390D01*
X68499524Y-56963390D02*
X68451905Y-57011009D01*
X68451905Y-57011009D02*
X68404286Y-57106247D01*
X30934819Y-28553333D02*
X31649104Y-28553333D01*
X31649104Y-28553333D02*
X31791961Y-28600952D01*
X31791961Y-28600952D02*
X31887200Y-28696190D01*
X31887200Y-28696190D02*
X31934819Y-28839047D01*
X31934819Y-28839047D02*
X31934819Y-28934285D01*
X31268152Y-27648571D02*
X31934819Y-27648571D01*
X30887200Y-27886666D02*
X31601485Y-28124761D01*
X31601485Y-28124761D02*
X31601485Y-27505714D01*
X68023333Y-51954819D02*
X67690000Y-51478628D01*
X67451905Y-51954819D02*
X67451905Y-50954819D01*
X67451905Y-50954819D02*
X67832857Y-50954819D01*
X67832857Y-50954819D02*
X67928095Y-51002438D01*
X67928095Y-51002438D02*
X67975714Y-51050057D01*
X67975714Y-51050057D02*
X68023333Y-51145295D01*
X68023333Y-51145295D02*
X68023333Y-51288152D01*
X68023333Y-51288152D02*
X67975714Y-51383390D01*
X67975714Y-51383390D02*
X67928095Y-51431009D01*
X67928095Y-51431009D02*
X67832857Y-51478628D01*
X67832857Y-51478628D02*
X67451905Y-51478628D01*
X68928095Y-50954819D02*
X68451905Y-50954819D01*
X68451905Y-50954819D02*
X68404286Y-51431009D01*
X68404286Y-51431009D02*
X68451905Y-51383390D01*
X68451905Y-51383390D02*
X68547143Y-51335771D01*
X68547143Y-51335771D02*
X68785238Y-51335771D01*
X68785238Y-51335771D02*
X68880476Y-51383390D01*
X68880476Y-51383390D02*
X68928095Y-51431009D01*
X68928095Y-51431009D02*
X68975714Y-51526247D01*
X68975714Y-51526247D02*
X68975714Y-51764342D01*
X68975714Y-51764342D02*
X68928095Y-51859580D01*
X68928095Y-51859580D02*
X68880476Y-51907200D01*
X68880476Y-51907200D02*
X68785238Y-51954819D01*
X68785238Y-51954819D02*
X68547143Y-51954819D01*
X68547143Y-51954819D02*
X68451905Y-51907200D01*
X68451905Y-51907200D02*
X68404286Y-51859580D01*
X106754819Y-51821429D02*
X107564342Y-51821429D01*
X107564342Y-51821429D02*
X107659580Y-51773810D01*
X107659580Y-51773810D02*
X107707200Y-51726191D01*
X107707200Y-51726191D02*
X107754819Y-51630953D01*
X107754819Y-51630953D02*
X107754819Y-51440477D01*
X107754819Y-51440477D02*
X107707200Y-51345239D01*
X107707200Y-51345239D02*
X107659580Y-51297620D01*
X107659580Y-51297620D02*
X107564342Y-51250001D01*
X107564342Y-51250001D02*
X106754819Y-51250001D01*
X107754819Y-50630953D02*
X107707200Y-50726191D01*
X107707200Y-50726191D02*
X107611961Y-50773810D01*
X107611961Y-50773810D02*
X106754819Y-50773810D01*
X107088152Y-50392857D02*
X107088152Y-50011905D01*
X106754819Y-50250000D02*
X107611961Y-50250000D01*
X107611961Y-50250000D02*
X107707200Y-50202381D01*
X107707200Y-50202381D02*
X107754819Y-50107143D01*
X107754819Y-50107143D02*
X107754819Y-50011905D01*
X107754819Y-49678571D02*
X107088152Y-49678571D01*
X107278628Y-49678571D02*
X107183390Y-49630952D01*
X107183390Y-49630952D02*
X107135771Y-49583333D01*
X107135771Y-49583333D02*
X107088152Y-49488095D01*
X107088152Y-49488095D02*
X107088152Y-49392857D01*
X107754819Y-48630952D02*
X107231009Y-48630952D01*
X107231009Y-48630952D02*
X107135771Y-48678571D01*
X107135771Y-48678571D02*
X107088152Y-48773809D01*
X107088152Y-48773809D02*
X107088152Y-48964285D01*
X107088152Y-48964285D02*
X107135771Y-49059523D01*
X107707200Y-48630952D02*
X107754819Y-48726190D01*
X107754819Y-48726190D02*
X107754819Y-48964285D01*
X107754819Y-48964285D02*
X107707200Y-49059523D01*
X107707200Y-49059523D02*
X107611961Y-49107142D01*
X107611961Y-49107142D02*
X107516723Y-49107142D01*
X107516723Y-49107142D02*
X107421485Y-49059523D01*
X107421485Y-49059523D02*
X107373866Y-48964285D01*
X107373866Y-48964285D02*
X107373866Y-48726190D01*
X107373866Y-48726190D02*
X107326247Y-48630952D01*
X107707200Y-48202380D02*
X107754819Y-48107142D01*
X107754819Y-48107142D02*
X107754819Y-47916666D01*
X107754819Y-47916666D02*
X107707200Y-47821428D01*
X107707200Y-47821428D02*
X107611961Y-47773809D01*
X107611961Y-47773809D02*
X107564342Y-47773809D01*
X107564342Y-47773809D02*
X107469104Y-47821428D01*
X107469104Y-47821428D02*
X107421485Y-47916666D01*
X107421485Y-47916666D02*
X107421485Y-48059523D01*
X107421485Y-48059523D02*
X107373866Y-48154761D01*
X107373866Y-48154761D02*
X107278628Y-48202380D01*
X107278628Y-48202380D02*
X107231009Y-48202380D01*
X107231009Y-48202380D02*
X107135771Y-48154761D01*
X107135771Y-48154761D02*
X107088152Y-48059523D01*
X107088152Y-48059523D02*
X107088152Y-47916666D01*
X107088152Y-47916666D02*
X107135771Y-47821428D01*
X107754819Y-47202380D02*
X107707200Y-47297618D01*
X107707200Y-47297618D02*
X107659580Y-47345237D01*
X107659580Y-47345237D02*
X107564342Y-47392856D01*
X107564342Y-47392856D02*
X107278628Y-47392856D01*
X107278628Y-47392856D02*
X107183390Y-47345237D01*
X107183390Y-47345237D02*
X107135771Y-47297618D01*
X107135771Y-47297618D02*
X107088152Y-47202380D01*
X107088152Y-47202380D02*
X107088152Y-47059523D01*
X107088152Y-47059523D02*
X107135771Y-46964285D01*
X107135771Y-46964285D02*
X107183390Y-46916666D01*
X107183390Y-46916666D02*
X107278628Y-46869047D01*
X107278628Y-46869047D02*
X107564342Y-46869047D01*
X107564342Y-46869047D02*
X107659580Y-46916666D01*
X107659580Y-46916666D02*
X107707200Y-46964285D01*
X107707200Y-46964285D02*
X107754819Y-47059523D01*
X107754819Y-47059523D02*
X107754819Y-47202380D01*
X107088152Y-46440475D02*
X107754819Y-46440475D01*
X107183390Y-46440475D02*
X107135771Y-46392856D01*
X107135771Y-46392856D02*
X107088152Y-46297618D01*
X107088152Y-46297618D02*
X107088152Y-46154761D01*
X107088152Y-46154761D02*
X107135771Y-46059523D01*
X107135771Y-46059523D02*
X107231009Y-46011904D01*
X107231009Y-46011904D02*
X107754819Y-46011904D01*
X107754819Y-45535713D02*
X107088152Y-45535713D01*
X106754819Y-45535713D02*
X106802438Y-45583332D01*
X106802438Y-45583332D02*
X106850057Y-45535713D01*
X106850057Y-45535713D02*
X106802438Y-45488094D01*
X106802438Y-45488094D02*
X106754819Y-45535713D01*
X106754819Y-45535713D02*
X106850057Y-45535713D01*
X107707200Y-44630952D02*
X107754819Y-44726190D01*
X107754819Y-44726190D02*
X107754819Y-44916666D01*
X107754819Y-44916666D02*
X107707200Y-45011904D01*
X107707200Y-45011904D02*
X107659580Y-45059523D01*
X107659580Y-45059523D02*
X107564342Y-45107142D01*
X107564342Y-45107142D02*
X107278628Y-45107142D01*
X107278628Y-45107142D02*
X107183390Y-45059523D01*
X107183390Y-45059523D02*
X107135771Y-45011904D01*
X107135771Y-45011904D02*
X107088152Y-44916666D01*
X107088152Y-44916666D02*
X107088152Y-44726190D01*
X107088152Y-44726190D02*
X107135771Y-44630952D01*
X107707200Y-44249999D02*
X107754819Y-44107142D01*
X107754819Y-44107142D02*
X107754819Y-43869047D01*
X107754819Y-43869047D02*
X107707200Y-43773809D01*
X107707200Y-43773809D02*
X107659580Y-43726190D01*
X107659580Y-43726190D02*
X107564342Y-43678571D01*
X107564342Y-43678571D02*
X107469104Y-43678571D01*
X107469104Y-43678571D02*
X107373866Y-43726190D01*
X107373866Y-43726190D02*
X107326247Y-43773809D01*
X107326247Y-43773809D02*
X107278628Y-43869047D01*
X107278628Y-43869047D02*
X107231009Y-44059523D01*
X107231009Y-44059523D02*
X107183390Y-44154761D01*
X107183390Y-44154761D02*
X107135771Y-44202380D01*
X107135771Y-44202380D02*
X107040533Y-44249999D01*
X107040533Y-44249999D02*
X106945295Y-44249999D01*
X106945295Y-44249999D02*
X106850057Y-44202380D01*
X106850057Y-44202380D02*
X106802438Y-44154761D01*
X106802438Y-44154761D02*
X106754819Y-44059523D01*
X106754819Y-44059523D02*
X106754819Y-43821428D01*
X106754819Y-43821428D02*
X106802438Y-43678571D01*
X107707200Y-42869047D02*
X107754819Y-42964285D01*
X107754819Y-42964285D02*
X107754819Y-43154761D01*
X107754819Y-43154761D02*
X107707200Y-43249999D01*
X107707200Y-43249999D02*
X107611961Y-43297618D01*
X107611961Y-43297618D02*
X107231009Y-43297618D01*
X107231009Y-43297618D02*
X107135771Y-43249999D01*
X107135771Y-43249999D02*
X107088152Y-43154761D01*
X107088152Y-43154761D02*
X107088152Y-42964285D01*
X107088152Y-42964285D02*
X107135771Y-42869047D01*
X107135771Y-42869047D02*
X107231009Y-42821428D01*
X107231009Y-42821428D02*
X107326247Y-42821428D01*
X107326247Y-42821428D02*
X107421485Y-43297618D01*
X107088152Y-42392856D02*
X107754819Y-42392856D01*
X107183390Y-42392856D02*
X107135771Y-42345237D01*
X107135771Y-42345237D02*
X107088152Y-42249999D01*
X107088152Y-42249999D02*
X107088152Y-42107142D01*
X107088152Y-42107142D02*
X107135771Y-42011904D01*
X107135771Y-42011904D02*
X107231009Y-41964285D01*
X107231009Y-41964285D02*
X107754819Y-41964285D01*
X107707200Y-41535713D02*
X107754819Y-41440475D01*
X107754819Y-41440475D02*
X107754819Y-41249999D01*
X107754819Y-41249999D02*
X107707200Y-41154761D01*
X107707200Y-41154761D02*
X107611961Y-41107142D01*
X107611961Y-41107142D02*
X107564342Y-41107142D01*
X107564342Y-41107142D02*
X107469104Y-41154761D01*
X107469104Y-41154761D02*
X107421485Y-41249999D01*
X107421485Y-41249999D02*
X107421485Y-41392856D01*
X107421485Y-41392856D02*
X107373866Y-41488094D01*
X107373866Y-41488094D02*
X107278628Y-41535713D01*
X107278628Y-41535713D02*
X107231009Y-41535713D01*
X107231009Y-41535713D02*
X107135771Y-41488094D01*
X107135771Y-41488094D02*
X107088152Y-41392856D01*
X107088152Y-41392856D02*
X107088152Y-41249999D01*
X107088152Y-41249999D02*
X107135771Y-41154761D01*
X107754819Y-40535713D02*
X107707200Y-40630951D01*
X107707200Y-40630951D02*
X107659580Y-40678570D01*
X107659580Y-40678570D02*
X107564342Y-40726189D01*
X107564342Y-40726189D02*
X107278628Y-40726189D01*
X107278628Y-40726189D02*
X107183390Y-40678570D01*
X107183390Y-40678570D02*
X107135771Y-40630951D01*
X107135771Y-40630951D02*
X107088152Y-40535713D01*
X107088152Y-40535713D02*
X107088152Y-40392856D01*
X107088152Y-40392856D02*
X107135771Y-40297618D01*
X107135771Y-40297618D02*
X107183390Y-40249999D01*
X107183390Y-40249999D02*
X107278628Y-40202380D01*
X107278628Y-40202380D02*
X107564342Y-40202380D01*
X107564342Y-40202380D02*
X107659580Y-40249999D01*
X107659580Y-40249999D02*
X107707200Y-40297618D01*
X107707200Y-40297618D02*
X107754819Y-40392856D01*
X107754819Y-40392856D02*
X107754819Y-40535713D01*
X107754819Y-39773808D02*
X107088152Y-39773808D01*
X107278628Y-39773808D02*
X107183390Y-39726189D01*
X107183390Y-39726189D02*
X107135771Y-39678570D01*
X107135771Y-39678570D02*
X107088152Y-39583332D01*
X107088152Y-39583332D02*
X107088152Y-39488094D01*
X107754819Y-38630951D02*
X107754819Y-39202379D01*
X107754819Y-38916665D02*
X106754819Y-38916665D01*
X106754819Y-38916665D02*
X106897676Y-39011903D01*
X106897676Y-39011903D02*
X106992914Y-39107141D01*
X106992914Y-39107141D02*
X107040533Y-39202379D01*
X119207200Y-60333333D02*
X119254819Y-60190476D01*
X119254819Y-60190476D02*
X119254819Y-59952381D01*
X119254819Y-59952381D02*
X119207200Y-59857143D01*
X119207200Y-59857143D02*
X119159580Y-59809524D01*
X119159580Y-59809524D02*
X119064342Y-59761905D01*
X119064342Y-59761905D02*
X118969104Y-59761905D01*
X118969104Y-59761905D02*
X118873866Y-59809524D01*
X118873866Y-59809524D02*
X118826247Y-59857143D01*
X118826247Y-59857143D02*
X118778628Y-59952381D01*
X118778628Y-59952381D02*
X118731009Y-60142857D01*
X118731009Y-60142857D02*
X118683390Y-60238095D01*
X118683390Y-60238095D02*
X118635771Y-60285714D01*
X118635771Y-60285714D02*
X118540533Y-60333333D01*
X118540533Y-60333333D02*
X118445295Y-60333333D01*
X118445295Y-60333333D02*
X118350057Y-60285714D01*
X118350057Y-60285714D02*
X118302438Y-60238095D01*
X118302438Y-60238095D02*
X118254819Y-60142857D01*
X118254819Y-60142857D02*
X118254819Y-59904762D01*
X118254819Y-59904762D02*
X118302438Y-59761905D01*
X119207200Y-58952381D02*
X119254819Y-59047619D01*
X119254819Y-59047619D02*
X119254819Y-59238095D01*
X119254819Y-59238095D02*
X119207200Y-59333333D01*
X119207200Y-59333333D02*
X119111961Y-59380952D01*
X119111961Y-59380952D02*
X118731009Y-59380952D01*
X118731009Y-59380952D02*
X118635771Y-59333333D01*
X118635771Y-59333333D02*
X118588152Y-59238095D01*
X118588152Y-59238095D02*
X118588152Y-59047619D01*
X118588152Y-59047619D02*
X118635771Y-58952381D01*
X118635771Y-58952381D02*
X118731009Y-58904762D01*
X118731009Y-58904762D02*
X118826247Y-58904762D01*
X118826247Y-58904762D02*
X118921485Y-59380952D01*
X119254819Y-58476190D02*
X118588152Y-58476190D01*
X118778628Y-58476190D02*
X118683390Y-58428571D01*
X118683390Y-58428571D02*
X118635771Y-58380952D01*
X118635771Y-58380952D02*
X118588152Y-58285714D01*
X118588152Y-58285714D02*
X118588152Y-58190476D01*
X118588152Y-57952380D02*
X119254819Y-57714285D01*
X119254819Y-57714285D02*
X118588152Y-57476190D01*
X119254819Y-56952380D02*
X119207200Y-57047618D01*
X119207200Y-57047618D02*
X119159580Y-57095237D01*
X119159580Y-57095237D02*
X119064342Y-57142856D01*
X119064342Y-57142856D02*
X118778628Y-57142856D01*
X118778628Y-57142856D02*
X118683390Y-57095237D01*
X118683390Y-57095237D02*
X118635771Y-57047618D01*
X118635771Y-57047618D02*
X118588152Y-56952380D01*
X118588152Y-56952380D02*
X118588152Y-56809523D01*
X118588152Y-56809523D02*
X118635771Y-56714285D01*
X118635771Y-56714285D02*
X118683390Y-56666666D01*
X118683390Y-56666666D02*
X118778628Y-56619047D01*
X118778628Y-56619047D02*
X119064342Y-56619047D01*
X119064342Y-56619047D02*
X119159580Y-56666666D01*
X119159580Y-56666666D02*
X119207200Y-56714285D01*
X119207200Y-56714285D02*
X119254819Y-56809523D01*
X119254819Y-56809523D02*
X119254819Y-56952380D01*
X119254819Y-55666666D02*
X119254819Y-56238094D01*
X119254819Y-55952380D02*
X118254819Y-55952380D01*
X118254819Y-55952380D02*
X118397676Y-56047618D01*
X118397676Y-56047618D02*
X118492914Y-56142856D01*
X118492914Y-56142856D02*
X118540533Y-56238094D01*
X50833333Y-28374819D02*
X50500000Y-27898628D01*
X50261905Y-28374819D02*
X50261905Y-27374819D01*
X50261905Y-27374819D02*
X50642857Y-27374819D01*
X50642857Y-27374819D02*
X50738095Y-27422438D01*
X50738095Y-27422438D02*
X50785714Y-27470057D01*
X50785714Y-27470057D02*
X50833333Y-27565295D01*
X50833333Y-27565295D02*
X50833333Y-27708152D01*
X50833333Y-27708152D02*
X50785714Y-27803390D01*
X50785714Y-27803390D02*
X50738095Y-27851009D01*
X50738095Y-27851009D02*
X50642857Y-27898628D01*
X50642857Y-27898628D02*
X50261905Y-27898628D01*
X51166667Y-27374819D02*
X51785714Y-27374819D01*
X51785714Y-27374819D02*
X51452381Y-27755771D01*
X51452381Y-27755771D02*
X51595238Y-27755771D01*
X51595238Y-27755771D02*
X51690476Y-27803390D01*
X51690476Y-27803390D02*
X51738095Y-27851009D01*
X51738095Y-27851009D02*
X51785714Y-27946247D01*
X51785714Y-27946247D02*
X51785714Y-28184342D01*
X51785714Y-28184342D02*
X51738095Y-28279580D01*
X51738095Y-28279580D02*
X51690476Y-28327200D01*
X51690476Y-28327200D02*
X51595238Y-28374819D01*
X51595238Y-28374819D02*
X51309524Y-28374819D01*
X51309524Y-28374819D02*
X51214286Y-28327200D01*
X51214286Y-28327200D02*
X51166667Y-28279580D01*
X24702438Y-60392856D02*
X24654819Y-60488094D01*
X24654819Y-60488094D02*
X24654819Y-60630951D01*
X24654819Y-60630951D02*
X24702438Y-60773808D01*
X24702438Y-60773808D02*
X24797676Y-60869046D01*
X24797676Y-60869046D02*
X24892914Y-60916665D01*
X24892914Y-60916665D02*
X25083390Y-60964284D01*
X25083390Y-60964284D02*
X25226247Y-60964284D01*
X25226247Y-60964284D02*
X25416723Y-60916665D01*
X25416723Y-60916665D02*
X25511961Y-60869046D01*
X25511961Y-60869046D02*
X25607200Y-60773808D01*
X25607200Y-60773808D02*
X25654819Y-60630951D01*
X25654819Y-60630951D02*
X25654819Y-60535713D01*
X25654819Y-60535713D02*
X25607200Y-60392856D01*
X25607200Y-60392856D02*
X25559580Y-60345237D01*
X25559580Y-60345237D02*
X25226247Y-60345237D01*
X25226247Y-60345237D02*
X25226247Y-60535713D01*
X25654819Y-59916665D02*
X24654819Y-59916665D01*
X24654819Y-59916665D02*
X24654819Y-59535713D01*
X24654819Y-59535713D02*
X24702438Y-59440475D01*
X24702438Y-59440475D02*
X24750057Y-59392856D01*
X24750057Y-59392856D02*
X24845295Y-59345237D01*
X24845295Y-59345237D02*
X24988152Y-59345237D01*
X24988152Y-59345237D02*
X25083390Y-59392856D01*
X25083390Y-59392856D02*
X25131009Y-59440475D01*
X25131009Y-59440475D02*
X25178628Y-59535713D01*
X25178628Y-59535713D02*
X25178628Y-59916665D01*
X25654819Y-58916665D02*
X24654819Y-58916665D01*
X24654819Y-58249999D02*
X24654819Y-58059523D01*
X24654819Y-58059523D02*
X24702438Y-57964285D01*
X24702438Y-57964285D02*
X24797676Y-57869047D01*
X24797676Y-57869047D02*
X24988152Y-57821428D01*
X24988152Y-57821428D02*
X25321485Y-57821428D01*
X25321485Y-57821428D02*
X25511961Y-57869047D01*
X25511961Y-57869047D02*
X25607200Y-57964285D01*
X25607200Y-57964285D02*
X25654819Y-58059523D01*
X25654819Y-58059523D02*
X25654819Y-58249999D01*
X25654819Y-58249999D02*
X25607200Y-58345237D01*
X25607200Y-58345237D02*
X25511961Y-58440475D01*
X25511961Y-58440475D02*
X25321485Y-58488094D01*
X25321485Y-58488094D02*
X24988152Y-58488094D01*
X24988152Y-58488094D02*
X24797676Y-58440475D01*
X24797676Y-58440475D02*
X24702438Y-58345237D01*
X24702438Y-58345237D02*
X24654819Y-58249999D01*
X25654819Y-57392856D02*
X24654819Y-57392856D01*
X25654819Y-56916666D02*
X24654819Y-56916666D01*
X24654819Y-56916666D02*
X25654819Y-56345238D01*
X25654819Y-56345238D02*
X24654819Y-56345238D01*
X25654819Y-55869047D02*
X24654819Y-55869047D01*
X24654819Y-55869047D02*
X24654819Y-55488095D01*
X24654819Y-55488095D02*
X24702438Y-55392857D01*
X24702438Y-55392857D02*
X24750057Y-55345238D01*
X24750057Y-55345238D02*
X24845295Y-55297619D01*
X24845295Y-55297619D02*
X24988152Y-55297619D01*
X24988152Y-55297619D02*
X25083390Y-55345238D01*
X25083390Y-55345238D02*
X25131009Y-55392857D01*
X25131009Y-55392857D02*
X25178628Y-55488095D01*
X25178628Y-55488095D02*
X25178628Y-55869047D01*
X24654819Y-54869047D02*
X25464342Y-54869047D01*
X25464342Y-54869047D02*
X25559580Y-54821428D01*
X25559580Y-54821428D02*
X25607200Y-54773809D01*
X25607200Y-54773809D02*
X25654819Y-54678571D01*
X25654819Y-54678571D02*
X25654819Y-54488095D01*
X25654819Y-54488095D02*
X25607200Y-54392857D01*
X25607200Y-54392857D02*
X25559580Y-54345238D01*
X25559580Y-54345238D02*
X25464342Y-54297619D01*
X25464342Y-54297619D02*
X24654819Y-54297619D01*
X24654819Y-53964285D02*
X24654819Y-53392857D01*
X25654819Y-53678571D02*
X24654819Y-53678571D01*
X25654819Y-52535714D02*
X25654819Y-53107142D01*
X25654819Y-52821428D02*
X24654819Y-52821428D01*
X24654819Y-52821428D02*
X24797676Y-52916666D01*
X24797676Y-52916666D02*
X24892914Y-53011904D01*
X24892914Y-53011904D02*
X24940533Y-53107142D01*
X108207200Y-60333333D02*
X108254819Y-60190476D01*
X108254819Y-60190476D02*
X108254819Y-59952381D01*
X108254819Y-59952381D02*
X108207200Y-59857143D01*
X108207200Y-59857143D02*
X108159580Y-59809524D01*
X108159580Y-59809524D02*
X108064342Y-59761905D01*
X108064342Y-59761905D02*
X107969104Y-59761905D01*
X107969104Y-59761905D02*
X107873866Y-59809524D01*
X107873866Y-59809524D02*
X107826247Y-59857143D01*
X107826247Y-59857143D02*
X107778628Y-59952381D01*
X107778628Y-59952381D02*
X107731009Y-60142857D01*
X107731009Y-60142857D02*
X107683390Y-60238095D01*
X107683390Y-60238095D02*
X107635771Y-60285714D01*
X107635771Y-60285714D02*
X107540533Y-60333333D01*
X107540533Y-60333333D02*
X107445295Y-60333333D01*
X107445295Y-60333333D02*
X107350057Y-60285714D01*
X107350057Y-60285714D02*
X107302438Y-60238095D01*
X107302438Y-60238095D02*
X107254819Y-60142857D01*
X107254819Y-60142857D02*
X107254819Y-59904762D01*
X107254819Y-59904762D02*
X107302438Y-59761905D01*
X108207200Y-58952381D02*
X108254819Y-59047619D01*
X108254819Y-59047619D02*
X108254819Y-59238095D01*
X108254819Y-59238095D02*
X108207200Y-59333333D01*
X108207200Y-59333333D02*
X108111961Y-59380952D01*
X108111961Y-59380952D02*
X107731009Y-59380952D01*
X107731009Y-59380952D02*
X107635771Y-59333333D01*
X107635771Y-59333333D02*
X107588152Y-59238095D01*
X107588152Y-59238095D02*
X107588152Y-59047619D01*
X107588152Y-59047619D02*
X107635771Y-58952381D01*
X107635771Y-58952381D02*
X107731009Y-58904762D01*
X107731009Y-58904762D02*
X107826247Y-58904762D01*
X107826247Y-58904762D02*
X107921485Y-59380952D01*
X108254819Y-58476190D02*
X107588152Y-58476190D01*
X107778628Y-58476190D02*
X107683390Y-58428571D01*
X107683390Y-58428571D02*
X107635771Y-58380952D01*
X107635771Y-58380952D02*
X107588152Y-58285714D01*
X107588152Y-58285714D02*
X107588152Y-58190476D01*
X107588152Y-57952380D02*
X108254819Y-57714285D01*
X108254819Y-57714285D02*
X107588152Y-57476190D01*
X108254819Y-56952380D02*
X108207200Y-57047618D01*
X108207200Y-57047618D02*
X108159580Y-57095237D01*
X108159580Y-57095237D02*
X108064342Y-57142856D01*
X108064342Y-57142856D02*
X107778628Y-57142856D01*
X107778628Y-57142856D02*
X107683390Y-57095237D01*
X107683390Y-57095237D02*
X107635771Y-57047618D01*
X107635771Y-57047618D02*
X107588152Y-56952380D01*
X107588152Y-56952380D02*
X107588152Y-56809523D01*
X107588152Y-56809523D02*
X107635771Y-56714285D01*
X107635771Y-56714285D02*
X107683390Y-56666666D01*
X107683390Y-56666666D02*
X107778628Y-56619047D01*
X107778628Y-56619047D02*
X108064342Y-56619047D01*
X108064342Y-56619047D02*
X108159580Y-56666666D01*
X108159580Y-56666666D02*
X108207200Y-56714285D01*
X108207200Y-56714285D02*
X108254819Y-56809523D01*
X108254819Y-56809523D02*
X108254819Y-56952380D01*
X107350057Y-56238094D02*
X107302438Y-56190475D01*
X107302438Y-56190475D02*
X107254819Y-56095237D01*
X107254819Y-56095237D02*
X107254819Y-55857142D01*
X107254819Y-55857142D02*
X107302438Y-55761904D01*
X107302438Y-55761904D02*
X107350057Y-55714285D01*
X107350057Y-55714285D02*
X107445295Y-55666666D01*
X107445295Y-55666666D02*
X107540533Y-55666666D01*
X107540533Y-55666666D02*
X107683390Y-55714285D01*
X107683390Y-55714285D02*
X108254819Y-56285713D01*
X108254819Y-56285713D02*
X108254819Y-55666666D01*
X92109580Y-38298989D02*
X92157200Y-38346608D01*
X92157200Y-38346608D02*
X92204819Y-38489465D01*
X92204819Y-38489465D02*
X92204819Y-38584703D01*
X92204819Y-38584703D02*
X92157200Y-38727560D01*
X92157200Y-38727560D02*
X92061961Y-38822798D01*
X92061961Y-38822798D02*
X91966723Y-38870417D01*
X91966723Y-38870417D02*
X91776247Y-38918036D01*
X91776247Y-38918036D02*
X91633390Y-38918036D01*
X91633390Y-38918036D02*
X91442914Y-38870417D01*
X91442914Y-38870417D02*
X91347676Y-38822798D01*
X91347676Y-38822798D02*
X91252438Y-38727560D01*
X91252438Y-38727560D02*
X91204819Y-38584703D01*
X91204819Y-38584703D02*
X91204819Y-38489465D01*
X91204819Y-38489465D02*
X91252438Y-38346608D01*
X91252438Y-38346608D02*
X91300057Y-38298989D01*
X91204819Y-37965655D02*
X91204819Y-37346608D01*
X91204819Y-37346608D02*
X91585771Y-37679941D01*
X91585771Y-37679941D02*
X91585771Y-37537084D01*
X91585771Y-37537084D02*
X91633390Y-37441846D01*
X91633390Y-37441846D02*
X91681009Y-37394227D01*
X91681009Y-37394227D02*
X91776247Y-37346608D01*
X91776247Y-37346608D02*
X92014342Y-37346608D01*
X92014342Y-37346608D02*
X92109580Y-37394227D01*
X92109580Y-37394227D02*
X92157200Y-37441846D01*
X92157200Y-37441846D02*
X92204819Y-37537084D01*
X92204819Y-37537084D02*
X92204819Y-37822798D01*
X92204819Y-37822798D02*
X92157200Y-37918036D01*
X92157200Y-37918036D02*
X92109580Y-37965655D01*
X100254819Y-59273809D02*
X99778628Y-59607142D01*
X100254819Y-59845237D02*
X99254819Y-59845237D01*
X99254819Y-59845237D02*
X99254819Y-59464285D01*
X99254819Y-59464285D02*
X99302438Y-59369047D01*
X99302438Y-59369047D02*
X99350057Y-59321428D01*
X99350057Y-59321428D02*
X99445295Y-59273809D01*
X99445295Y-59273809D02*
X99588152Y-59273809D01*
X99588152Y-59273809D02*
X99683390Y-59321428D01*
X99683390Y-59321428D02*
X99731009Y-59369047D01*
X99731009Y-59369047D02*
X99778628Y-59464285D01*
X99778628Y-59464285D02*
X99778628Y-59845237D01*
X99302438Y-58321428D02*
X99254819Y-58416666D01*
X99254819Y-58416666D02*
X99254819Y-58559523D01*
X99254819Y-58559523D02*
X99302438Y-58702380D01*
X99302438Y-58702380D02*
X99397676Y-58797618D01*
X99397676Y-58797618D02*
X99492914Y-58845237D01*
X99492914Y-58845237D02*
X99683390Y-58892856D01*
X99683390Y-58892856D02*
X99826247Y-58892856D01*
X99826247Y-58892856D02*
X100016723Y-58845237D01*
X100016723Y-58845237D02*
X100111961Y-58797618D01*
X100111961Y-58797618D02*
X100207200Y-58702380D01*
X100207200Y-58702380D02*
X100254819Y-58559523D01*
X100254819Y-58559523D02*
X100254819Y-58464285D01*
X100254819Y-58464285D02*
X100207200Y-58321428D01*
X100207200Y-58321428D02*
X100159580Y-58273809D01*
X100159580Y-58273809D02*
X99826247Y-58273809D01*
X99826247Y-58273809D02*
X99826247Y-58464285D01*
X99731009Y-57511904D02*
X99778628Y-57369047D01*
X99778628Y-57369047D02*
X99826247Y-57321428D01*
X99826247Y-57321428D02*
X99921485Y-57273809D01*
X99921485Y-57273809D02*
X100064342Y-57273809D01*
X100064342Y-57273809D02*
X100159580Y-57321428D01*
X100159580Y-57321428D02*
X100207200Y-57369047D01*
X100207200Y-57369047D02*
X100254819Y-57464285D01*
X100254819Y-57464285D02*
X100254819Y-57845237D01*
X100254819Y-57845237D02*
X99254819Y-57845237D01*
X99254819Y-57845237D02*
X99254819Y-57511904D01*
X99254819Y-57511904D02*
X99302438Y-57416666D01*
X99302438Y-57416666D02*
X99350057Y-57369047D01*
X99350057Y-57369047D02*
X99445295Y-57321428D01*
X99445295Y-57321428D02*
X99540533Y-57321428D01*
X99540533Y-57321428D02*
X99635771Y-57369047D01*
X99635771Y-57369047D02*
X99683390Y-57416666D01*
X99683390Y-57416666D02*
X99731009Y-57511904D01*
X99731009Y-57511904D02*
X99731009Y-57845237D01*
X100254819Y-56369047D02*
X100254819Y-56845237D01*
X100254819Y-56845237D02*
X99254819Y-56845237D01*
X99731009Y-56035713D02*
X99731009Y-55702380D01*
X100254819Y-55559523D02*
X100254819Y-56035713D01*
X100254819Y-56035713D02*
X99254819Y-56035713D01*
X99254819Y-56035713D02*
X99254819Y-55559523D01*
X100254819Y-55130951D02*
X99254819Y-55130951D01*
X99254819Y-55130951D02*
X99254819Y-54892856D01*
X99254819Y-54892856D02*
X99302438Y-54749999D01*
X99302438Y-54749999D02*
X99397676Y-54654761D01*
X99397676Y-54654761D02*
X99492914Y-54607142D01*
X99492914Y-54607142D02*
X99683390Y-54559523D01*
X99683390Y-54559523D02*
X99826247Y-54559523D01*
X99826247Y-54559523D02*
X100016723Y-54607142D01*
X100016723Y-54607142D02*
X100111961Y-54654761D01*
X100111961Y-54654761D02*
X100207200Y-54749999D01*
X100207200Y-54749999D02*
X100254819Y-54892856D01*
X100254819Y-54892856D02*
X100254819Y-55130951D01*
X100254819Y-53607142D02*
X100254819Y-54178570D01*
X100254819Y-53892856D02*
X99254819Y-53892856D01*
X99254819Y-53892856D02*
X99397676Y-53988094D01*
X99397676Y-53988094D02*
X99492914Y-54083332D01*
X99492914Y-54083332D02*
X99540533Y-54178570D01*
X68844199Y-27367534D02*
X69653722Y-27367534D01*
X69653722Y-27367534D02*
X69748960Y-27319915D01*
X69748960Y-27319915D02*
X69796580Y-27272296D01*
X69796580Y-27272296D02*
X69844199Y-27177058D01*
X69844199Y-27177058D02*
X69844199Y-26986582D01*
X69844199Y-26986582D02*
X69796580Y-26891344D01*
X69796580Y-26891344D02*
X69748960Y-26843725D01*
X69748960Y-26843725D02*
X69653722Y-26796106D01*
X69653722Y-26796106D02*
X68844199Y-26796106D01*
X69844199Y-25796106D02*
X69844199Y-26367534D01*
X69844199Y-26081820D02*
X68844199Y-26081820D01*
X68844199Y-26081820D02*
X68987056Y-26177058D01*
X68987056Y-26177058D02*
X69082294Y-26272296D01*
X69082294Y-26272296D02*
X69129913Y-26367534D01*
X89833333Y-24454819D02*
X89500000Y-23978628D01*
X89261905Y-24454819D02*
X89261905Y-23454819D01*
X89261905Y-23454819D02*
X89642857Y-23454819D01*
X89642857Y-23454819D02*
X89738095Y-23502438D01*
X89738095Y-23502438D02*
X89785714Y-23550057D01*
X89785714Y-23550057D02*
X89833333Y-23645295D01*
X89833333Y-23645295D02*
X89833333Y-23788152D01*
X89833333Y-23788152D02*
X89785714Y-23883390D01*
X89785714Y-23883390D02*
X89738095Y-23931009D01*
X89738095Y-23931009D02*
X89642857Y-23978628D01*
X89642857Y-23978628D02*
X89261905Y-23978628D01*
X90785714Y-24454819D02*
X90214286Y-24454819D01*
X90500000Y-24454819D02*
X90500000Y-23454819D01*
X90500000Y-23454819D02*
X90404762Y-23597676D01*
X90404762Y-23597676D02*
X90309524Y-23692914D01*
X90309524Y-23692914D02*
X90214286Y-23740533D01*
X52643333Y-29534819D02*
X52310000Y-29058628D01*
X52071905Y-29534819D02*
X52071905Y-28534819D01*
X52071905Y-28534819D02*
X52452857Y-28534819D01*
X52452857Y-28534819D02*
X52548095Y-28582438D01*
X52548095Y-28582438D02*
X52595714Y-28630057D01*
X52595714Y-28630057D02*
X52643333Y-28725295D01*
X52643333Y-28725295D02*
X52643333Y-28868152D01*
X52643333Y-28868152D02*
X52595714Y-28963390D01*
X52595714Y-28963390D02*
X52548095Y-29011009D01*
X52548095Y-29011009D02*
X52452857Y-29058628D01*
X52452857Y-29058628D02*
X52071905Y-29058628D01*
X53024286Y-28630057D02*
X53071905Y-28582438D01*
X53071905Y-28582438D02*
X53167143Y-28534819D01*
X53167143Y-28534819D02*
X53405238Y-28534819D01*
X53405238Y-28534819D02*
X53500476Y-28582438D01*
X53500476Y-28582438D02*
X53548095Y-28630057D01*
X53548095Y-28630057D02*
X53595714Y-28725295D01*
X53595714Y-28725295D02*
X53595714Y-28820533D01*
X53595714Y-28820533D02*
X53548095Y-28963390D01*
X53548095Y-28963390D02*
X52976667Y-29534819D01*
X52976667Y-29534819D02*
X53595714Y-29534819D01*
X98249819Y-29751904D02*
X99059342Y-29751904D01*
X99059342Y-29751904D02*
X99154580Y-29704285D01*
X99154580Y-29704285D02*
X99202200Y-29656666D01*
X99202200Y-29656666D02*
X99249819Y-29561428D01*
X99249819Y-29561428D02*
X99249819Y-29370952D01*
X99249819Y-29370952D02*
X99202200Y-29275714D01*
X99202200Y-29275714D02*
X99154580Y-29228095D01*
X99154580Y-29228095D02*
X99059342Y-29180476D01*
X99059342Y-29180476D02*
X98249819Y-29180476D01*
X98345057Y-28751904D02*
X98297438Y-28704285D01*
X98297438Y-28704285D02*
X98249819Y-28609047D01*
X98249819Y-28609047D02*
X98249819Y-28370952D01*
X98249819Y-28370952D02*
X98297438Y-28275714D01*
X98297438Y-28275714D02*
X98345057Y-28228095D01*
X98345057Y-28228095D02*
X98440295Y-28180476D01*
X98440295Y-28180476D02*
X98535533Y-28180476D01*
X98535533Y-28180476D02*
X98678390Y-28228095D01*
X98678390Y-28228095D02*
X99249819Y-28799523D01*
X99249819Y-28799523D02*
X99249819Y-28180476D01*
X68523333Y-47534819D02*
X68190000Y-47058628D01*
X67951905Y-47534819D02*
X67951905Y-46534819D01*
X67951905Y-46534819D02*
X68332857Y-46534819D01*
X68332857Y-46534819D02*
X68428095Y-46582438D01*
X68428095Y-46582438D02*
X68475714Y-46630057D01*
X68475714Y-46630057D02*
X68523333Y-46725295D01*
X68523333Y-46725295D02*
X68523333Y-46868152D01*
X68523333Y-46868152D02*
X68475714Y-46963390D01*
X68475714Y-46963390D02*
X68428095Y-47011009D01*
X68428095Y-47011009D02*
X68332857Y-47058628D01*
X68332857Y-47058628D02*
X67951905Y-47058628D01*
X69380476Y-46868152D02*
X69380476Y-47534819D01*
X69142381Y-46487200D02*
X68904286Y-47201485D01*
X68904286Y-47201485D02*
X69523333Y-47201485D01*
X124207200Y-51678570D02*
X124254819Y-51535713D01*
X124254819Y-51535713D02*
X124254819Y-51297618D01*
X124254819Y-51297618D02*
X124207200Y-51202380D01*
X124207200Y-51202380D02*
X124159580Y-51154761D01*
X124159580Y-51154761D02*
X124064342Y-51107142D01*
X124064342Y-51107142D02*
X123969104Y-51107142D01*
X123969104Y-51107142D02*
X123873866Y-51154761D01*
X123873866Y-51154761D02*
X123826247Y-51202380D01*
X123826247Y-51202380D02*
X123778628Y-51297618D01*
X123778628Y-51297618D02*
X123731009Y-51488094D01*
X123731009Y-51488094D02*
X123683390Y-51583332D01*
X123683390Y-51583332D02*
X123635771Y-51630951D01*
X123635771Y-51630951D02*
X123540533Y-51678570D01*
X123540533Y-51678570D02*
X123445295Y-51678570D01*
X123445295Y-51678570D02*
X123350057Y-51630951D01*
X123350057Y-51630951D02*
X123302438Y-51583332D01*
X123302438Y-51583332D02*
X123254819Y-51488094D01*
X123254819Y-51488094D02*
X123254819Y-51249999D01*
X123254819Y-51249999D02*
X123302438Y-51107142D01*
X123254819Y-50488094D02*
X123254819Y-50297618D01*
X123254819Y-50297618D02*
X123302438Y-50202380D01*
X123302438Y-50202380D02*
X123397676Y-50107142D01*
X123397676Y-50107142D02*
X123588152Y-50059523D01*
X123588152Y-50059523D02*
X123921485Y-50059523D01*
X123921485Y-50059523D02*
X124111961Y-50107142D01*
X124111961Y-50107142D02*
X124207200Y-50202380D01*
X124207200Y-50202380D02*
X124254819Y-50297618D01*
X124254819Y-50297618D02*
X124254819Y-50488094D01*
X124254819Y-50488094D02*
X124207200Y-50583332D01*
X124207200Y-50583332D02*
X124111961Y-50678570D01*
X124111961Y-50678570D02*
X123921485Y-50726189D01*
X123921485Y-50726189D02*
X123588152Y-50726189D01*
X123588152Y-50726189D02*
X123397676Y-50678570D01*
X123397676Y-50678570D02*
X123302438Y-50583332D01*
X123302438Y-50583332D02*
X123254819Y-50488094D01*
X124254819Y-49154761D02*
X124254819Y-49630951D01*
X124254819Y-49630951D02*
X123254819Y-49630951D01*
X123731009Y-48821427D02*
X123731009Y-48488094D01*
X124254819Y-48345237D02*
X124254819Y-48821427D01*
X124254819Y-48821427D02*
X123254819Y-48821427D01*
X123254819Y-48821427D02*
X123254819Y-48345237D01*
X124254819Y-47916665D02*
X123254819Y-47916665D01*
X123254819Y-47916665D02*
X124254819Y-47345237D01*
X124254819Y-47345237D02*
X123254819Y-47345237D01*
X123254819Y-46678570D02*
X123254819Y-46488094D01*
X123254819Y-46488094D02*
X123302438Y-46392856D01*
X123302438Y-46392856D02*
X123397676Y-46297618D01*
X123397676Y-46297618D02*
X123588152Y-46249999D01*
X123588152Y-46249999D02*
X123921485Y-46249999D01*
X123921485Y-46249999D02*
X124111961Y-46297618D01*
X124111961Y-46297618D02*
X124207200Y-46392856D01*
X124207200Y-46392856D02*
X124254819Y-46488094D01*
X124254819Y-46488094D02*
X124254819Y-46678570D01*
X124254819Y-46678570D02*
X124207200Y-46773808D01*
X124207200Y-46773808D02*
X124111961Y-46869046D01*
X124111961Y-46869046D02*
X123921485Y-46916665D01*
X123921485Y-46916665D02*
X123588152Y-46916665D01*
X123588152Y-46916665D02*
X123397676Y-46869046D01*
X123397676Y-46869046D02*
X123302438Y-46773808D01*
X123302438Y-46773808D02*
X123254819Y-46678570D01*
X124254819Y-45821427D02*
X123254819Y-45821427D01*
X124254819Y-45345237D02*
X123254819Y-45345237D01*
X123254819Y-45345237D02*
X123254819Y-45107142D01*
X123254819Y-45107142D02*
X123302438Y-44964285D01*
X123302438Y-44964285D02*
X123397676Y-44869047D01*
X123397676Y-44869047D02*
X123492914Y-44821428D01*
X123492914Y-44821428D02*
X123683390Y-44773809D01*
X123683390Y-44773809D02*
X123826247Y-44773809D01*
X123826247Y-44773809D02*
X124016723Y-44821428D01*
X124016723Y-44821428D02*
X124111961Y-44869047D01*
X124111961Y-44869047D02*
X124207200Y-44964285D01*
X124207200Y-44964285D02*
X124254819Y-45107142D01*
X124254819Y-45107142D02*
X124254819Y-45345237D01*
X124254819Y-43821428D02*
X124254819Y-44392856D01*
X124254819Y-44107142D02*
X123254819Y-44107142D01*
X123254819Y-44107142D02*
X123397676Y-44202380D01*
X123397676Y-44202380D02*
X123492914Y-44297618D01*
X123492914Y-44297618D02*
X123540533Y-44392856D01*
D11*
%TO.C,GPIOSOLENOID1*%
X28110000Y-46910000D02*
X30610000Y-46910000D01*
X30610000Y-46910000D02*
X30610000Y-44410000D01*
X26290000Y-46610000D02*
X30310000Y-46610000D01*
X28000000Y-46610000D02*
X28000000Y-46110000D01*
X28810000Y-46610000D02*
X28810000Y-45610000D01*
X30310000Y-46610000D02*
X30310000Y-33890000D01*
X26790000Y-46110000D02*
X26790000Y-34390000D01*
X28000000Y-46110000D02*
X26790000Y-46110000D01*
X28810000Y-45610000D02*
X30310000Y-45610000D01*
X28810000Y-34890000D02*
X30310000Y-34890000D01*
X26790000Y-34390000D02*
X28000000Y-34390000D01*
X28000000Y-34390000D02*
X28000000Y-33890000D01*
X26290000Y-33890000D02*
X26290000Y-46610000D01*
X28810000Y-33890000D02*
X28810000Y-34890000D01*
X30310000Y-33890000D02*
X26290000Y-33890000D01*
%TO.C,L1*%
X78970000Y-37000000D02*
G75*
G02*
X70030000Y-37000000I-4470000J0D01*
G01*
X70030000Y-37000000D02*
G75*
G02*
X78970000Y-37000000I4470000J0D01*
G01*
%TO.C,GPIOSERVO1*%
X39290000Y-53390000D02*
X39290000Y-63610000D01*
X39290000Y-63610000D02*
X43310000Y-63610000D01*
X39790000Y-53890000D02*
X41000000Y-53890000D01*
X39790000Y-63110000D02*
X39790000Y-53890000D01*
X41000000Y-53890000D02*
X41000000Y-53390000D01*
X41000000Y-63110000D02*
X39790000Y-63110000D01*
X41000000Y-63610000D02*
X41000000Y-63110000D01*
X41110000Y-63910000D02*
X43610000Y-63910000D01*
X41810000Y-53390000D02*
X41810000Y-54390000D01*
X41810000Y-54390000D02*
X43310000Y-54390000D01*
X41810000Y-62610000D02*
X43310000Y-62610000D01*
X41810000Y-63610000D02*
X41810000Y-62610000D01*
X43310000Y-53390000D02*
X39290000Y-53390000D01*
X43310000Y-63610000D02*
X43310000Y-53390000D01*
X43610000Y-63910000D02*
X43610000Y-61410000D01*
%TO.C,C2*%
X37354113Y-34784000D02*
X37354113Y-34216000D01*
X37394113Y-35018000D02*
X37394113Y-33982000D01*
X37434113Y-35177000D02*
X37434113Y-33823000D01*
X37474113Y-35305000D02*
X37474113Y-33695000D01*
X37514113Y-35415000D02*
X37514113Y-33585000D01*
X37554113Y-35511000D02*
X37554113Y-33489000D01*
X37594113Y-35598000D02*
X37594113Y-33402000D01*
X37634113Y-35678000D02*
X37634113Y-33322000D01*
X37674113Y-33460000D02*
X37674113Y-33249000D01*
X37674113Y-35751000D02*
X37674113Y-35540000D01*
X37714113Y-33460000D02*
X37714113Y-33181000D01*
X37714113Y-35819000D02*
X37714113Y-35540000D01*
X37754113Y-33460000D02*
X37754113Y-33117000D01*
X37754113Y-35883000D02*
X37754113Y-35540000D01*
X37794113Y-33460000D02*
X37794113Y-33057000D01*
X37794113Y-35943000D02*
X37794113Y-35540000D01*
X37834113Y-33460000D02*
X37834113Y-33000000D01*
X37834113Y-36000000D02*
X37834113Y-35540000D01*
X37874113Y-33460000D02*
X37874113Y-32946000D01*
X37874113Y-36054000D02*
X37874113Y-35540000D01*
X37914113Y-33460000D02*
X37914113Y-32895000D01*
X37914113Y-36105000D02*
X37914113Y-35540000D01*
X37954113Y-33460000D02*
X37954113Y-32847000D01*
X37954113Y-36153000D02*
X37954113Y-35540000D01*
X37994113Y-33460000D02*
X37994113Y-32801000D01*
X37994113Y-36199000D02*
X37994113Y-35540000D01*
X38034113Y-33460000D02*
X38034113Y-32757000D01*
X38034113Y-36243000D02*
X38034113Y-35540000D01*
X38074113Y-33460000D02*
X38074113Y-32715000D01*
X38074113Y-36285000D02*
X38074113Y-35540000D01*
X38114113Y-33460000D02*
X38114113Y-32674000D01*
X38114113Y-36326000D02*
X38114113Y-35540000D01*
X38154113Y-33460000D02*
X38154113Y-32636000D01*
X38154113Y-36364000D02*
X38154113Y-35540000D01*
X38194113Y-33460000D02*
X38194113Y-32599000D01*
X38194113Y-36401000D02*
X38194113Y-35540000D01*
X38234113Y-33460000D02*
X38234113Y-32563000D01*
X38234113Y-36437000D02*
X38234113Y-35540000D01*
X38274113Y-33460000D02*
X38274113Y-32529000D01*
X38274113Y-36471000D02*
X38274113Y-35540000D01*
X38314113Y-33460000D02*
X38314113Y-32496000D01*
X38314113Y-36504000D02*
X38314113Y-35540000D01*
X38354113Y-33460000D02*
X38354113Y-32465000D01*
X38354113Y-36535000D02*
X38354113Y-35540000D01*
X38394113Y-33460000D02*
X38394113Y-32435000D01*
X38394113Y-36565000D02*
X38394113Y-35540000D01*
X38434113Y-33460000D02*
X38434113Y-32405000D01*
X38434113Y-36595000D02*
X38434113Y-35540000D01*
X38474113Y-33460000D02*
X38474113Y-32378000D01*
X38474113Y-36622000D02*
X38474113Y-35540000D01*
X38514113Y-33460000D02*
X38514113Y-32351000D01*
X38514113Y-36649000D02*
X38514113Y-35540000D01*
X38554113Y-33460000D02*
X38554113Y-32325000D01*
X38554113Y-36675000D02*
X38554113Y-35540000D01*
X38594113Y-33460000D02*
X38594113Y-32300000D01*
X38594113Y-36700000D02*
X38594113Y-35540000D01*
X38634113Y-33460000D02*
X38634113Y-32276000D01*
X38634113Y-36724000D02*
X38634113Y-35540000D01*
X38674113Y-33460000D02*
X38674113Y-32253000D01*
X38674113Y-36747000D02*
X38674113Y-35540000D01*
X38714113Y-33460000D02*
X38714113Y-32232000D01*
X38714113Y-36768000D02*
X38714113Y-35540000D01*
X38754113Y-33460000D02*
X38754113Y-32210000D01*
X38754113Y-36790000D02*
X38754113Y-35540000D01*
X38794113Y-33460000D02*
X38794113Y-32190000D01*
X38794113Y-36810000D02*
X38794113Y-35540000D01*
X38834113Y-33460000D02*
X38834113Y-32171000D01*
X38834113Y-36829000D02*
X38834113Y-35540000D01*
X38874113Y-33460000D02*
X38874113Y-32152000D01*
X38874113Y-36848000D02*
X38874113Y-35540000D01*
X38914113Y-33460000D02*
X38914113Y-32135000D01*
X38914113Y-36865000D02*
X38914113Y-35540000D01*
X38954113Y-33460000D02*
X38954113Y-32118000D01*
X38954113Y-36882000D02*
X38954113Y-35540000D01*
X38994113Y-33460000D02*
X38994113Y-32102000D01*
X38994113Y-36898000D02*
X38994113Y-35540000D01*
X39034113Y-33460000D02*
X39034113Y-32086000D01*
X39034113Y-36914000D02*
X39034113Y-35540000D01*
X39074113Y-33460000D02*
X39074113Y-32072000D01*
X39074113Y-36928000D02*
X39074113Y-35540000D01*
X39114113Y-33460000D02*
X39114113Y-32058000D01*
X39114113Y-36942000D02*
X39114113Y-35540000D01*
X39154113Y-33460000D02*
X39154113Y-32045000D01*
X39154113Y-36955000D02*
X39154113Y-35540000D01*
X39194113Y-33460000D02*
X39194113Y-32032000D01*
X39194113Y-36968000D02*
X39194113Y-35540000D01*
X39234113Y-33460000D02*
X39234113Y-32020000D01*
X39234113Y-36980000D02*
X39234113Y-35540000D01*
X39275113Y-33460000D02*
X39275113Y-32009000D01*
X39275113Y-36991000D02*
X39275113Y-35540000D01*
X39315113Y-33460000D02*
X39315113Y-31999000D01*
X39315113Y-37001000D02*
X39315113Y-35540000D01*
X39355113Y-33460000D02*
X39355113Y-31989000D01*
X39355113Y-37011000D02*
X39355113Y-35540000D01*
X39395113Y-33460000D02*
X39395113Y-31980000D01*
X39395113Y-37020000D02*
X39395113Y-35540000D01*
X39435113Y-33460000D02*
X39435113Y-31972000D01*
X39435113Y-37028000D02*
X39435113Y-35540000D01*
X39475113Y-33460000D02*
X39475113Y-31964000D01*
X39475113Y-37036000D02*
X39475113Y-35540000D01*
X39515113Y-33460000D02*
X39515113Y-31957000D01*
X39515113Y-37043000D02*
X39515113Y-35540000D01*
X39555113Y-33460000D02*
X39555113Y-31950000D01*
X39555113Y-37050000D02*
X39555113Y-35540000D01*
X39595113Y-33460000D02*
X39595113Y-31944000D01*
X39595113Y-37056000D02*
X39595113Y-35540000D01*
X39635113Y-33460000D02*
X39635113Y-31939000D01*
X39635113Y-37061000D02*
X39635113Y-35540000D01*
X39675113Y-33460000D02*
X39675113Y-31935000D01*
X39675113Y-37065000D02*
X39675113Y-35540000D01*
X39715113Y-33460000D02*
X39715113Y-31931000D01*
X39715113Y-37069000D02*
X39715113Y-35540000D01*
X39755113Y-37073000D02*
X39755113Y-31927000D01*
X39795113Y-37076000D02*
X39795113Y-31924000D01*
X39835113Y-37078000D02*
X39835113Y-31922000D01*
X39875113Y-37079000D02*
X39875113Y-31921000D01*
X39915113Y-37080000D02*
X39915113Y-31920000D01*
X39955113Y-37080000D02*
X39955113Y-31920000D01*
X42509888Y-36225000D02*
X42509888Y-35725000D01*
X42759888Y-35975000D02*
X42259888Y-35975000D01*
X42575113Y-34500000D02*
G75*
G02*
X37335113Y-34500000I-2620000J0D01*
G01*
X37335113Y-34500000D02*
G75*
G02*
X42575113Y-34500000I2620000J0D01*
G01*
%TO.C,D1*%
X77600000Y-28500000D02*
X78510000Y-28500000D01*
X78510000Y-25780000D02*
X78510000Y-31220000D01*
X78510000Y-31220000D02*
X88250000Y-31220000D01*
X86585000Y-31220000D02*
X86585000Y-25780000D01*
X86705000Y-31220000D02*
X86705000Y-25780000D01*
X86825000Y-31220000D02*
X86825000Y-25780000D01*
X88250000Y-25780000D02*
X78510000Y-25780000D01*
X88250000Y-31220000D02*
X88250000Y-25780000D01*
X89160000Y-28500000D02*
X88250000Y-28500000D01*
%TO.C,D2*%
X112180000Y-38500000D02*
X113200000Y-38500000D01*
X113200000Y-37030000D02*
X113200000Y-39970000D01*
X113200000Y-39970000D02*
X118640000Y-39970000D01*
X117620000Y-39970000D02*
X117620000Y-37030000D01*
X117740000Y-39970000D02*
X117740000Y-37030000D01*
X117860000Y-39970000D02*
X117860000Y-37030000D01*
X118640000Y-37030000D02*
X113200000Y-37030000D01*
X118640000Y-39970000D02*
X118640000Y-37030000D01*
X119660000Y-38500000D02*
X118640000Y-38500000D01*
%TO.C,R6*%
X65320000Y-59000000D02*
X66270000Y-59000000D01*
X66270000Y-58080000D02*
X66270000Y-59920000D01*
X66270000Y-59920000D02*
X70110000Y-59920000D01*
X70110000Y-58080000D02*
X66270000Y-58080000D01*
X70110000Y-59920000D02*
X70110000Y-58080000D01*
X71060000Y-59000000D02*
X70110000Y-59000000D01*
%TO.C,J4*%
X31430000Y-25370000D02*
X30980000Y-24970000D01*
X31430000Y-24570000D02*
X31430000Y-25370000D01*
X30980000Y-24970000D02*
X31430000Y-24570000D01*
X28180000Y-30420000D02*
X29730000Y-30420000D01*
X28180000Y-30120000D02*
X28180000Y-30420000D01*
X28180000Y-22120000D02*
X29730000Y-22120000D01*
X28180000Y-22120000D02*
X28180000Y-22420000D01*
X25380000Y-30120000D02*
X28180000Y-30120000D01*
X25380000Y-22420000D02*
X28180000Y-22420000D01*
%TO.C,C1*%
X37149000Y-27284000D02*
X37149000Y-26716000D01*
X37189000Y-27518000D02*
X37189000Y-26482000D01*
X37229000Y-27677000D02*
X37229000Y-26323000D01*
X37269000Y-27805000D02*
X37269000Y-26195000D01*
X37309000Y-27915000D02*
X37309000Y-26085000D01*
X37349000Y-28011000D02*
X37349000Y-25989000D01*
X37389000Y-28098000D02*
X37389000Y-25902000D01*
X37429000Y-28178000D02*
X37429000Y-25822000D01*
X37469000Y-25960000D02*
X37469000Y-25749000D01*
X37469000Y-28251000D02*
X37469000Y-28040000D01*
X37509000Y-25960000D02*
X37509000Y-25681000D01*
X37509000Y-28319000D02*
X37509000Y-28040000D01*
X37549000Y-25960000D02*
X37549000Y-25617000D01*
X37549000Y-28383000D02*
X37549000Y-28040000D01*
X37589000Y-25960000D02*
X37589000Y-25557000D01*
X37589000Y-28443000D02*
X37589000Y-28040000D01*
X37629000Y-25960000D02*
X37629000Y-25500000D01*
X37629000Y-28500000D02*
X37629000Y-28040000D01*
X37669000Y-25960000D02*
X37669000Y-25446000D01*
X37669000Y-28554000D02*
X37669000Y-28040000D01*
X37709000Y-25960000D02*
X37709000Y-25395000D01*
X37709000Y-28605000D02*
X37709000Y-28040000D01*
X37749000Y-25960000D02*
X37749000Y-25347000D01*
X37749000Y-28653000D02*
X37749000Y-28040000D01*
X37789000Y-25960000D02*
X37789000Y-25301000D01*
X37789000Y-28699000D02*
X37789000Y-28040000D01*
X37829000Y-25960000D02*
X37829000Y-25257000D01*
X37829000Y-28743000D02*
X37829000Y-28040000D01*
X37869000Y-25960000D02*
X37869000Y-25215000D01*
X37869000Y-28785000D02*
X37869000Y-28040000D01*
X37909000Y-25960000D02*
X37909000Y-25174000D01*
X37909000Y-28826000D02*
X37909000Y-28040000D01*
X37949000Y-25960000D02*
X37949000Y-25136000D01*
X37949000Y-28864000D02*
X37949000Y-28040000D01*
X37989000Y-25960000D02*
X37989000Y-25099000D01*
X37989000Y-28901000D02*
X37989000Y-28040000D01*
X38029000Y-25960000D02*
X38029000Y-25063000D01*
X38029000Y-28937000D02*
X38029000Y-28040000D01*
X38069000Y-25960000D02*
X38069000Y-25029000D01*
X38069000Y-28971000D02*
X38069000Y-28040000D01*
X38109000Y-25960000D02*
X38109000Y-24996000D01*
X38109000Y-29004000D02*
X38109000Y-28040000D01*
X38149000Y-25960000D02*
X38149000Y-24965000D01*
X38149000Y-29035000D02*
X38149000Y-28040000D01*
X38189000Y-25960000D02*
X38189000Y-24935000D01*
X38189000Y-29065000D02*
X38189000Y-28040000D01*
X38229000Y-25960000D02*
X38229000Y-24905000D01*
X38229000Y-29095000D02*
X38229000Y-28040000D01*
X38269000Y-25960000D02*
X38269000Y-24878000D01*
X38269000Y-29122000D02*
X38269000Y-28040000D01*
X38309000Y-25960000D02*
X38309000Y-24851000D01*
X38309000Y-29149000D02*
X38309000Y-28040000D01*
X38349000Y-25960000D02*
X38349000Y-24825000D01*
X38349000Y-29175000D02*
X38349000Y-28040000D01*
X38389000Y-25960000D02*
X38389000Y-24800000D01*
X38389000Y-29200000D02*
X38389000Y-28040000D01*
X38429000Y-25960000D02*
X38429000Y-24776000D01*
X38429000Y-29224000D02*
X38429000Y-28040000D01*
X38469000Y-25960000D02*
X38469000Y-24753000D01*
X38469000Y-29247000D02*
X38469000Y-28040000D01*
X38509000Y-25960000D02*
X38509000Y-24732000D01*
X38509000Y-29268000D02*
X38509000Y-28040000D01*
X38549000Y-25960000D02*
X38549000Y-24710000D01*
X38549000Y-29290000D02*
X38549000Y-28040000D01*
X38589000Y-25960000D02*
X38589000Y-24690000D01*
X38589000Y-29310000D02*
X38589000Y-28040000D01*
X38629000Y-25960000D02*
X38629000Y-24671000D01*
X38629000Y-29329000D02*
X38629000Y-28040000D01*
X38669000Y-25960000D02*
X38669000Y-24652000D01*
X38669000Y-29348000D02*
X38669000Y-28040000D01*
X38709000Y-25960000D02*
X38709000Y-24635000D01*
X38709000Y-29365000D02*
X38709000Y-28040000D01*
X38749000Y-25960000D02*
X38749000Y-24618000D01*
X38749000Y-29382000D02*
X38749000Y-28040000D01*
X38789000Y-25960000D02*
X38789000Y-24602000D01*
X38789000Y-29398000D02*
X38789000Y-28040000D01*
X38829000Y-25960000D02*
X38829000Y-24586000D01*
X38829000Y-29414000D02*
X38829000Y-28040000D01*
X38869000Y-25960000D02*
X38869000Y-24572000D01*
X38869000Y-29428000D02*
X38869000Y-28040000D01*
X38909000Y-25960000D02*
X38909000Y-24558000D01*
X38909000Y-29442000D02*
X38909000Y-28040000D01*
X38949000Y-25960000D02*
X38949000Y-24545000D01*
X38949000Y-29455000D02*
X38949000Y-28040000D01*
X38989000Y-25960000D02*
X38989000Y-24532000D01*
X38989000Y-29468000D02*
X38989000Y-28040000D01*
X39029000Y-25960000D02*
X39029000Y-24520000D01*
X39029000Y-29480000D02*
X39029000Y-28040000D01*
X39070000Y-25960000D02*
X39070000Y-24509000D01*
X39070000Y-29491000D02*
X39070000Y-28040000D01*
X39110000Y-25960000D02*
X39110000Y-24499000D01*
X39110000Y-29501000D02*
X39110000Y-28040000D01*
X39150000Y-25960000D02*
X39150000Y-24489000D01*
X39150000Y-29511000D02*
X39150000Y-28040000D01*
X39190000Y-25960000D02*
X39190000Y-24480000D01*
X39190000Y-29520000D02*
X39190000Y-28040000D01*
X39230000Y-25960000D02*
X39230000Y-24472000D01*
X39230000Y-29528000D02*
X39230000Y-28040000D01*
X39270000Y-25960000D02*
X39270000Y-24464000D01*
X39270000Y-29536000D02*
X39270000Y-28040000D01*
X39310000Y-25960000D02*
X39310000Y-24457000D01*
X39310000Y-29543000D02*
X39310000Y-28040000D01*
X39350000Y-25960000D02*
X39350000Y-24450000D01*
X39350000Y-29550000D02*
X39350000Y-28040000D01*
X39390000Y-25960000D02*
X39390000Y-24444000D01*
X39390000Y-29556000D02*
X39390000Y-28040000D01*
X39430000Y-25960000D02*
X39430000Y-24439000D01*
X39430000Y-29561000D02*
X39430000Y-28040000D01*
X39470000Y-25960000D02*
X39470000Y-24435000D01*
X39470000Y-29565000D02*
X39470000Y-28040000D01*
X39510000Y-25960000D02*
X39510000Y-24431000D01*
X39510000Y-29569000D02*
X39510000Y-28040000D01*
X39550000Y-29573000D02*
X39550000Y-24427000D01*
X39590000Y-29576000D02*
X39590000Y-24424000D01*
X39630000Y-29578000D02*
X39630000Y-24422000D01*
X39670000Y-29579000D02*
X39670000Y-24421000D01*
X39710000Y-29580000D02*
X39710000Y-24420000D01*
X39750000Y-29580000D02*
X39750000Y-24420000D01*
X42304775Y-28725000D02*
X42304775Y-28225000D01*
X42554775Y-28475000D02*
X42054775Y-28475000D01*
X42370000Y-27000000D02*
G75*
G02*
X37130000Y-27000000I-2620000J0D01*
G01*
X37130000Y-27000000D02*
G75*
G02*
X42370000Y-27000000I2620000J0D01*
G01*
%TO.C,R5*%
X65320000Y-53500000D02*
X66270000Y-53500000D01*
X66270000Y-52580000D02*
X66270000Y-54420000D01*
X66270000Y-54420000D02*
X70110000Y-54420000D01*
X70110000Y-52580000D02*
X66270000Y-52580000D01*
X70110000Y-54420000D02*
X70110000Y-52580000D01*
X71060000Y-53500000D02*
X70110000Y-53500000D01*
%TO.C,UltrasonicSensor1*%
X101890000Y-38590000D02*
X101890000Y-41090000D01*
X102190000Y-38890000D02*
X102190000Y-51610000D01*
X102190000Y-51610000D02*
X106210000Y-51610000D01*
X103690000Y-38890000D02*
X103690000Y-39890000D01*
X103690000Y-39890000D02*
X102190000Y-39890000D01*
X103690000Y-50610000D02*
X102190000Y-50610000D01*
X103690000Y-51610000D02*
X103690000Y-50610000D01*
X104390000Y-38590000D02*
X101890000Y-38590000D01*
X104500000Y-38890000D02*
X104500000Y-39390000D01*
X104500000Y-39390000D02*
X105710000Y-39390000D01*
X104500000Y-51110000D02*
X104500000Y-51610000D01*
X105710000Y-39390000D02*
X105710000Y-51110000D01*
X105710000Y-51110000D02*
X104500000Y-51110000D01*
X106210000Y-38890000D02*
X102190000Y-38890000D01*
X106210000Y-51610000D02*
X106210000Y-38890000D01*
%TO.C,Servo1*%
X113390000Y-52590000D02*
X113390000Y-55090000D01*
X113690000Y-52890000D02*
X113690000Y-63110000D01*
X113690000Y-63110000D02*
X117710000Y-63110000D01*
X115190000Y-52890000D02*
X115190000Y-53890000D01*
X115190000Y-53890000D02*
X113690000Y-53890000D01*
X115190000Y-62110000D02*
X113690000Y-62110000D01*
X115190000Y-63110000D02*
X115190000Y-62110000D01*
X115890000Y-52590000D02*
X113390000Y-52590000D01*
X116000000Y-52890000D02*
X116000000Y-53390000D01*
X116000000Y-53390000D02*
X117210000Y-53390000D01*
X116000000Y-62610000D02*
X116000000Y-63110000D01*
X117210000Y-53390000D02*
X117210000Y-62610000D01*
X117210000Y-62610000D02*
X116000000Y-62610000D01*
X117710000Y-52890000D02*
X113690000Y-52890000D01*
X117710000Y-63110000D02*
X117710000Y-52890000D01*
%TO.C,R3*%
X48130000Y-26000000D02*
X49080000Y-26000000D01*
X49080000Y-25080000D02*
X49080000Y-26920000D01*
X49080000Y-26920000D02*
X52920000Y-26920000D01*
X52920000Y-25080000D02*
X49080000Y-25080000D01*
X52920000Y-26920000D02*
X52920000Y-25080000D01*
X53870000Y-26000000D02*
X52920000Y-26000000D01*
%TO.C,GPIOINPUT1*%
X26290000Y-47890000D02*
X26290000Y-65610000D01*
X26290000Y-65610000D02*
X30310000Y-65610000D01*
X26790000Y-48390000D02*
X28000000Y-48390000D01*
X26790000Y-65110000D02*
X26790000Y-48390000D01*
X28000000Y-48390000D02*
X28000000Y-47890000D01*
X28000000Y-65110000D02*
X26790000Y-65110000D01*
X28000000Y-65610000D02*
X28000000Y-65110000D01*
X28110000Y-65910000D02*
X30610000Y-65910000D01*
X28810000Y-47890000D02*
X28810000Y-48890000D01*
X28810000Y-48890000D02*
X30310000Y-48890000D01*
X28810000Y-64610000D02*
X30310000Y-64610000D01*
X28810000Y-65610000D02*
X28810000Y-64610000D01*
X30310000Y-47890000D02*
X26290000Y-47890000D01*
X30310000Y-65610000D02*
X30310000Y-47890000D01*
X30610000Y-65910000D02*
X30610000Y-63410000D01*
%TO.C,Servo2*%
X102390000Y-52590000D02*
X102390000Y-55090000D01*
X102690000Y-52890000D02*
X102690000Y-63110000D01*
X102690000Y-63110000D02*
X106710000Y-63110000D01*
X104190000Y-52890000D02*
X104190000Y-53890000D01*
X104190000Y-53890000D02*
X102690000Y-53890000D01*
X104190000Y-62110000D02*
X102690000Y-62110000D01*
X104190000Y-63110000D02*
X104190000Y-62110000D01*
X104890000Y-52590000D02*
X102390000Y-52590000D01*
X105000000Y-52890000D02*
X105000000Y-53390000D01*
X105000000Y-53390000D02*
X106210000Y-53390000D01*
X105000000Y-62610000D02*
X105000000Y-63110000D01*
X106210000Y-53390000D02*
X106210000Y-62610000D01*
X106210000Y-62610000D02*
X105000000Y-62610000D01*
X106710000Y-52890000D02*
X102690000Y-52890000D01*
X106710000Y-63110000D02*
X106710000Y-52890000D01*
%TO.C,C3*%
X84259000Y-39413323D02*
X80582000Y-39413323D01*
X84259000Y-39453323D02*
X80593000Y-39453323D01*
X84259000Y-39493323D02*
X80603000Y-39493323D01*
X84259000Y-39533323D02*
X80615000Y-39533323D01*
X84259000Y-39573323D02*
X80626000Y-39573323D01*
X84259000Y-39613323D02*
X80638000Y-39613323D01*
X84259000Y-39653323D02*
X80650000Y-39653323D01*
X84259000Y-39693323D02*
X80663000Y-39693323D01*
X84259000Y-39733323D02*
X80676000Y-39733323D01*
X84259000Y-39773323D02*
X80689000Y-39773323D01*
X84259000Y-39813323D02*
X80703000Y-39813323D01*
X84259000Y-39853323D02*
X80717000Y-39853323D01*
X84259000Y-39893323D02*
X80732000Y-39893323D01*
X84259000Y-39933323D02*
X80746000Y-39933323D01*
X84259000Y-39973323D02*
X80762000Y-39973323D01*
X84259000Y-40013323D02*
X80777000Y-40013323D01*
X84259000Y-40053323D02*
X80793000Y-40053323D01*
X84259000Y-40093323D02*
X80810000Y-40093323D01*
X84259000Y-40133323D02*
X80826000Y-40133323D01*
X84259000Y-40173323D02*
X80843000Y-40173323D01*
X84259000Y-40213323D02*
X80861000Y-40213323D01*
X84259000Y-40253323D02*
X80879000Y-40253323D01*
X84259000Y-40293323D02*
X80897000Y-40293323D01*
X84259000Y-40333323D02*
X80916000Y-40333323D01*
X84259000Y-40373323D02*
X80936000Y-40373323D01*
X84259000Y-40413323D02*
X80955000Y-40413323D01*
X84259000Y-40453323D02*
X80975000Y-40453323D01*
X84259000Y-40493323D02*
X80996000Y-40493323D01*
X84259000Y-40533323D02*
X81017000Y-40533323D01*
X84259000Y-40573323D02*
X81038000Y-40573323D01*
X84259000Y-40613323D02*
X81060000Y-40613323D01*
X84259000Y-40653323D02*
X81083000Y-40653323D01*
X84259000Y-40693323D02*
X81105000Y-40693323D01*
X84259000Y-40733323D02*
X81129000Y-40733323D01*
X84259000Y-40773323D02*
X81153000Y-40773323D01*
X84259000Y-40813323D02*
X81177000Y-40813323D01*
X84259000Y-40853323D02*
X81202000Y-40853323D01*
X84259000Y-40893323D02*
X81227000Y-40893323D01*
X84259000Y-40933323D02*
X81253000Y-40933323D01*
X84259000Y-40973323D02*
X81279000Y-40973323D01*
X84259000Y-41013323D02*
X81306000Y-41013323D01*
X84259000Y-41053323D02*
X81334000Y-41053323D01*
X84259000Y-41093323D02*
X81362000Y-41093323D01*
X84259000Y-41133323D02*
X81390000Y-41133323D01*
X84259000Y-41173323D02*
X81420000Y-41173323D01*
X84259000Y-41213323D02*
X81450000Y-41213323D01*
X84259000Y-41253323D02*
X81480000Y-41253323D01*
X84259000Y-41293323D02*
X81511000Y-41293323D01*
X84259000Y-41333323D02*
X81543000Y-41333323D01*
X84259000Y-41373323D02*
X81575000Y-41373323D01*
X84259000Y-41413323D02*
X81608000Y-41413323D01*
X84259000Y-41453323D02*
X81642000Y-41453323D01*
X84259000Y-41493323D02*
X81676000Y-41493323D01*
X84259000Y-41533323D02*
X81711000Y-41533323D01*
X84259000Y-41573323D02*
X81747000Y-41573323D01*
X84259000Y-41613323D02*
X81784000Y-41613323D01*
X84259000Y-41653323D02*
X81821000Y-41653323D01*
X84259000Y-41693323D02*
X81860000Y-41693323D01*
X84259000Y-41733323D02*
X81899000Y-41733323D01*
X84259000Y-41773323D02*
X81939000Y-41773323D01*
X84259000Y-41813323D02*
X81980000Y-41813323D01*
X84259000Y-41853323D02*
X82022000Y-41853323D01*
X86099000Y-43213323D02*
X84901000Y-43213323D01*
X86362000Y-43173323D02*
X84638000Y-43173323D01*
X86562000Y-43133323D02*
X84438000Y-43133323D01*
X86730000Y-43093323D02*
X84270000Y-43093323D01*
X86878000Y-43053323D02*
X84122000Y-43053323D01*
X87010000Y-43013323D02*
X83990000Y-43013323D01*
X87130000Y-42973323D02*
X83870000Y-42973323D01*
X87242000Y-42933323D02*
X83758000Y-42933323D01*
X87346000Y-42893323D02*
X83654000Y-42893323D01*
X87444000Y-42853323D02*
X83556000Y-42853323D01*
X87537000Y-42813323D02*
X83463000Y-42813323D01*
X87625000Y-42773323D02*
X83375000Y-42773323D01*
X87709000Y-42733323D02*
X83291000Y-42733323D01*
X87789000Y-42693323D02*
X83211000Y-42693323D01*
X87865000Y-42653323D02*
X83135000Y-42653323D01*
X87939000Y-42613323D02*
X83061000Y-42613323D01*
X88010000Y-42573323D02*
X82990000Y-42573323D01*
X88079000Y-42533323D02*
X82921000Y-42533323D01*
X88145000Y-42493323D02*
X82855000Y-42493323D01*
X88209000Y-42453323D02*
X82791000Y-42453323D01*
X88270000Y-42413323D02*
X82730000Y-42413323D01*
X88330000Y-42373323D02*
X82670000Y-42373323D01*
X88375000Y-32652677D02*
X88375000Y-33652677D01*
X88389000Y-42333323D02*
X82611000Y-42333323D01*
X88445000Y-42293323D02*
X82555000Y-42293323D01*
X88500000Y-42253323D02*
X82500000Y-42253323D01*
X88554000Y-42213323D02*
X82446000Y-42213323D01*
X88606000Y-42173323D02*
X82394000Y-42173323D01*
X88656000Y-42133323D02*
X82344000Y-42133323D01*
X88706000Y-42093323D02*
X82294000Y-42093323D01*
X88754000Y-42053323D02*
X82246000Y-42053323D01*
X88801000Y-42013323D02*
X82199000Y-42013323D01*
X88847000Y-41973323D02*
X82153000Y-41973323D01*
X88875000Y-33152677D02*
X87875000Y-33152677D01*
X88892000Y-41933323D02*
X82108000Y-41933323D01*
X88936000Y-41893323D02*
X82064000Y-41893323D01*
X88978000Y-41853323D02*
X86741000Y-41853323D01*
X89020000Y-41813323D02*
X86741000Y-41813323D01*
X89061000Y-41773323D02*
X86741000Y-41773323D01*
X89101000Y-41733323D02*
X86741000Y-41733323D01*
X89140000Y-41693323D02*
X86741000Y-41693323D01*
X89179000Y-41653323D02*
X86741000Y-41653323D01*
X89216000Y-41613323D02*
X86741000Y-41613323D01*
X89253000Y-41573323D02*
X86741000Y-41573323D01*
X89289000Y-41533323D02*
X86741000Y-41533323D01*
X89324000Y-41493323D02*
X86741000Y-41493323D01*
X89358000Y-41453323D02*
X86741000Y-41453323D01*
X89392000Y-41413323D02*
X86741000Y-41413323D01*
X89425000Y-41373323D02*
X86741000Y-41373323D01*
X89457000Y-41333323D02*
X86741000Y-41333323D01*
X89489000Y-41293323D02*
X86741000Y-41293323D01*
X89520000Y-41253323D02*
X86741000Y-41253323D01*
X89550000Y-41213323D02*
X86741000Y-41213323D01*
X89580000Y-41173323D02*
X86741000Y-41173323D01*
X89610000Y-41133323D02*
X86741000Y-41133323D01*
X89638000Y-41093323D02*
X86741000Y-41093323D01*
X89666000Y-41053323D02*
X86741000Y-41053323D01*
X89694000Y-41013323D02*
X86741000Y-41013323D01*
X89721000Y-40973323D02*
X86741000Y-40973323D01*
X89747000Y-40933323D02*
X86741000Y-40933323D01*
X89773000Y-40893323D02*
X86741000Y-40893323D01*
X89798000Y-40853323D02*
X86741000Y-40853323D01*
X89823000Y-40813323D02*
X86741000Y-40813323D01*
X89847000Y-40773323D02*
X86741000Y-40773323D01*
X89871000Y-40733323D02*
X86741000Y-40733323D01*
X89895000Y-40693323D02*
X86741000Y-40693323D01*
X89917000Y-40653323D02*
X86741000Y-40653323D01*
X89940000Y-40613323D02*
X86741000Y-40613323D01*
X89962000Y-40573323D02*
X86741000Y-40573323D01*
X89983000Y-40533323D02*
X86741000Y-40533323D01*
X90004000Y-40493323D02*
X86741000Y-40493323D01*
X90025000Y-40453323D02*
X86741000Y-40453323D01*
X90045000Y-40413323D02*
X86741000Y-40413323D01*
X90064000Y-40373323D02*
X86741000Y-40373323D01*
X90084000Y-40333323D02*
X86741000Y-40333323D01*
X90103000Y-40293323D02*
X86741000Y-40293323D01*
X90121000Y-40253323D02*
X86741000Y-40253323D01*
X90139000Y-40213323D02*
X86741000Y-40213323D01*
X90157000Y-40173323D02*
X86741000Y-40173323D01*
X90174000Y-40133323D02*
X86741000Y-40133323D01*
X90190000Y-40093323D02*
X86741000Y-40093323D01*
X90207000Y-40053323D02*
X86741000Y-40053323D01*
X90223000Y-40013323D02*
X86741000Y-40013323D01*
X90238000Y-39973323D02*
X86741000Y-39973323D01*
X90254000Y-39933323D02*
X86741000Y-39933323D01*
X90268000Y-39893323D02*
X86741000Y-39893323D01*
X90283000Y-39853323D02*
X86741000Y-39853323D01*
X90297000Y-39813323D02*
X86741000Y-39813323D01*
X90311000Y-39773323D02*
X86741000Y-39773323D01*
X90324000Y-39733323D02*
X86741000Y-39733323D01*
X90337000Y-39693323D02*
X86741000Y-39693323D01*
X90350000Y-39653323D02*
X86741000Y-39653323D01*
X90362000Y-39613323D02*
X86741000Y-39613323D01*
X90374000Y-39573323D02*
X86741000Y-39573323D01*
X90385000Y-39533323D02*
X86741000Y-39533323D01*
X90397000Y-39493323D02*
X86741000Y-39493323D01*
X90407000Y-39453323D02*
X86741000Y-39453323D01*
X90418000Y-39413323D02*
X86741000Y-39413323D01*
X90428000Y-39373323D02*
X80572000Y-39373323D01*
X90438000Y-39333323D02*
X80562000Y-39333323D01*
X90447000Y-39293323D02*
X80553000Y-39293323D01*
X90456000Y-39253323D02*
X80544000Y-39253323D01*
X90465000Y-39213323D02*
X80535000Y-39213323D01*
X90474000Y-39173323D02*
X80526000Y-39173323D01*
X90482000Y-39133323D02*
X80518000Y-39133323D01*
X90490000Y-39093323D02*
X80510000Y-39093323D01*
X90497000Y-39053323D02*
X80503000Y-39053323D01*
X90504000Y-39013323D02*
X80496000Y-39013323D01*
X90511000Y-38973323D02*
X80489000Y-38973323D01*
X90518000Y-38933323D02*
X80482000Y-38933323D01*
X90524000Y-38893323D02*
X80476000Y-38893323D01*
X90530000Y-38853323D02*
X80470000Y-38853323D01*
X90535000Y-38812323D02*
X80465000Y-38812323D01*
X90540000Y-38772323D02*
X80460000Y-38772323D01*
X90545000Y-38732323D02*
X80455000Y-38732323D01*
X90550000Y-38692323D02*
X80450000Y-38692323D01*
X90554000Y-38652323D02*
X80446000Y-38652323D01*
X90558000Y-38612323D02*
X80442000Y-38612323D01*
X90562000Y-38572323D02*
X80438000Y-38572323D01*
X90565000Y-38532323D02*
X80435000Y-38532323D01*
X90568000Y-38492323D02*
X80432000Y-38492323D01*
X90570000Y-38452323D02*
X80430000Y-38452323D01*
X90573000Y-38412323D02*
X80427000Y-38412323D01*
X90575000Y-38372323D02*
X80425000Y-38372323D01*
X90577000Y-38332323D02*
X80423000Y-38332323D01*
X90578000Y-38292323D02*
X80422000Y-38292323D01*
X90579000Y-38252323D02*
X80421000Y-38252323D01*
X90580000Y-38132323D02*
X80420000Y-38132323D01*
X90580000Y-38172323D02*
X80420000Y-38172323D01*
X90580000Y-38212323D02*
X80420000Y-38212323D01*
X90620000Y-38132323D02*
G75*
G02*
X80380000Y-38132323I-5120000J0D01*
G01*
X80380000Y-38132323D02*
G75*
G02*
X90620000Y-38132323I5120000J0D01*
G01*
%TO.C,RGBLED1*%
X94390000Y-50090000D02*
X94390000Y-52590000D01*
X94690000Y-50390000D02*
X94690000Y-63110000D01*
X94690000Y-63110000D02*
X98710000Y-63110000D01*
X96190000Y-50390000D02*
X96190000Y-51390000D01*
X96190000Y-51390000D02*
X94690000Y-51390000D01*
X96190000Y-62110000D02*
X94690000Y-62110000D01*
X96190000Y-63110000D02*
X96190000Y-62110000D01*
X96890000Y-50090000D02*
X94390000Y-50090000D01*
X97000000Y-50390000D02*
X97000000Y-50890000D01*
X97000000Y-50890000D02*
X98210000Y-50890000D01*
X97000000Y-62610000D02*
X97000000Y-63110000D01*
X98210000Y-50890000D02*
X98210000Y-62610000D01*
X98210000Y-62610000D02*
X97000000Y-62610000D01*
X98710000Y-50390000D02*
X94690000Y-50390000D01*
X98710000Y-63110000D02*
X98710000Y-50390000D01*
D12*
%TO.C,U1*%
X62930000Y-34740000D02*
X62930000Y-24060000D01*
X62930000Y-34740000D02*
X67770000Y-34740000D01*
X67770000Y-24060000D02*
X62930000Y-24060000D01*
X67770000Y-24060000D02*
X67770000Y-34740000D01*
D13*
X65072500Y-23300000D02*
G75*
G02*
X64872500Y-23300000I-100000J0D01*
G01*
X64872500Y-23300000D02*
G75*
G02*
X65072500Y-23300000I100000J0D01*
G01*
D11*
%TO.C,R1*%
X80820000Y-24000000D02*
X81770000Y-24000000D01*
X81770000Y-23080000D02*
X81770000Y-24920000D01*
X81770000Y-24920000D02*
X85610000Y-24920000D01*
X85610000Y-23080000D02*
X81770000Y-23080000D01*
X85610000Y-24920000D02*
X85610000Y-23080000D01*
X86560000Y-24000000D02*
X85610000Y-24000000D01*
%TO.C,R2*%
X49940000Y-31000000D02*
X50890000Y-31000000D01*
X50890000Y-30080000D02*
X50890000Y-31920000D01*
X50890000Y-31920000D02*
X54730000Y-31920000D01*
X54730000Y-30080000D02*
X50890000Y-30080000D01*
X54730000Y-31920000D02*
X54730000Y-30080000D01*
X55680000Y-31000000D02*
X54730000Y-31000000D01*
%TO.C,U2*%
X99795000Y-26340000D02*
X99795000Y-27990000D01*
X99795000Y-29990000D02*
X99795000Y-31640000D01*
X99795000Y-31640000D02*
X120235000Y-31640000D01*
X120235000Y-26340000D02*
X99795000Y-26340000D01*
X120235000Y-31640000D02*
X120235000Y-26340000D01*
X99795000Y-27990000D02*
G75*
G02*
X99795000Y-29990000I0J-1000000D01*
G01*
%TO.C,R4*%
X65820000Y-49000000D02*
X66770000Y-49000000D01*
X66770000Y-48080000D02*
X66770000Y-49920000D01*
X66770000Y-49920000D02*
X70610000Y-49920000D01*
X70610000Y-48080000D02*
X66770000Y-48080000D01*
X70610000Y-49920000D02*
X70610000Y-48080000D01*
X71560000Y-49000000D02*
X70610000Y-49000000D01*
%TO.C,SOLENOID1*%
X118390000Y-43590000D02*
X118390000Y-46090000D01*
X118690000Y-43890000D02*
X118690000Y-51610000D01*
X118690000Y-51610000D02*
X122710000Y-51610000D01*
X120190000Y-43890000D02*
X120190000Y-44890000D01*
X120190000Y-44890000D02*
X118690000Y-44890000D01*
X120190000Y-50610000D02*
X118690000Y-50610000D01*
X120190000Y-51610000D02*
X120190000Y-50610000D01*
X120890000Y-43590000D02*
X118390000Y-43590000D01*
X121000000Y-43890000D02*
X121000000Y-44390000D01*
X121000000Y-44390000D02*
X122210000Y-44390000D01*
X121000000Y-51110000D02*
X121000000Y-51610000D01*
X122210000Y-44390000D02*
X122210000Y-51110000D01*
X122210000Y-51110000D02*
X121000000Y-51110000D01*
X122710000Y-43890000D02*
X118690000Y-43890000D01*
X122710000Y-51610000D02*
X122710000Y-43890000D01*
%TD*%
M02*
