%TF.GenerationSoftware,KiCad,Pcbnew,8.0.1*%
%TF.CreationDate,2024-03-22T20:00:45-04:00*%
%TF.ProjectId,PowerBoost_PCB,506f7765-7242-46f6-9f73-745f5043422e,rev?*%
%TF.SameCoordinates,Original*%
%TF.FileFunction,Copper,L2,Bot*%
%TF.FilePolarity,Positive*%
%FSLAX46Y46*%
G04 Gerber Fmt 4.6, Leading zero omitted, Abs format (unit mm)*
G04 Created by KiCad (PCBNEW 8.0.1) date 2024-03-22 20:00:45*
%MOMM*%
%LPD*%
G01*
G04 APERTURE LIST*
G04 Aperture macros list*
%AMRoundRect*
0 Rectangle with rounded corners*
0 $1 Rounding radius*
0 $2 $3 $4 $5 $6 $7 $8 $9 X,Y pos of 4 corners*
0 Add a 4 corners polygon primitive as box body*
4,1,4,$2,$3,$4,$5,$6,$7,$8,$9,$2,$3,0*
0 Add four circle primitives for the rounded corners*
1,1,$1+$1,$2,$3*
1,1,$1+$1,$4,$5*
1,1,$1+$1,$6,$7*
1,1,$1+$1,$8,$9*
0 Add four rect primitives between the rounded corners*
20,1,$1+$1,$2,$3,$4,$5,0*
20,1,$1+$1,$4,$5,$6,$7,0*
20,1,$1+$1,$6,$7,$8,$9,0*
20,1,$1+$1,$8,$9,$2,$3,0*%
G04 Aperture macros list end*
%TA.AperFunction,ComponentPad*%
%ADD10RoundRect,0.250000X0.725000X-0.600000X0.725000X0.600000X-0.725000X0.600000X-0.725000X-0.600000X0*%
%TD*%
%TA.AperFunction,ComponentPad*%
%ADD11O,1.950000X1.700000*%
%TD*%
%TA.AperFunction,ComponentPad*%
%ADD12C,2.600000*%
%TD*%
%TA.AperFunction,ComponentPad*%
%ADD13R,1.600000X1.600000*%
%TD*%
%TA.AperFunction,ComponentPad*%
%ADD14C,1.600000*%
%TD*%
%TA.AperFunction,ComponentPad*%
%ADD15R,3.200000X3.200000*%
%TD*%
%TA.AperFunction,ComponentPad*%
%ADD16O,3.200000X3.200000*%
%TD*%
%TA.AperFunction,ComponentPad*%
%ADD17R,2.200000X2.200000*%
%TD*%
%TA.AperFunction,ComponentPad*%
%ADD18O,2.200000X2.200000*%
%TD*%
%TA.AperFunction,ComponentPad*%
%ADD19C,1.400000*%
%TD*%
%TA.AperFunction,ComponentPad*%
%ADD20O,1.400000X1.400000*%
%TD*%
%TA.AperFunction,ComponentPad*%
%ADD21O,1.700000X1.350000*%
%TD*%
%TA.AperFunction,ComponentPad*%
%ADD22O,1.500000X1.100000*%
%TD*%
%TA.AperFunction,ComponentPad*%
%ADD23RoundRect,0.250000X-0.725000X0.600000X-0.725000X-0.600000X0.725000X-0.600000X0.725000X0.600000X0*%
%TD*%
%TA.AperFunction,ComponentPad*%
%ADD24R,2.000000X2.000000*%
%TD*%
%TA.AperFunction,ComponentPad*%
%ADD25C,2.000000*%
%TD*%
%TA.AperFunction,ComponentPad*%
%ADD26O,2.800000X1.400000*%
%TD*%
%TA.AperFunction,ComponentPad*%
%ADD27O,1.600000X1.600000*%
%TD*%
%TA.AperFunction,ComponentPad*%
%ADD28RoundRect,0.250000X-0.750000X0.600000X-0.750000X-0.600000X0.750000X-0.600000X0.750000X0.600000X0*%
%TD*%
%TA.AperFunction,ComponentPad*%
%ADD29O,2.000000X1.700000*%
%TD*%
%TA.AperFunction,Conductor*%
%ADD30C,0.250000*%
%TD*%
G04 APERTURE END LIST*
D10*
%TO.P,GPIOSOLENOID1,1,Pin_1*%
%TO.N,Net-(GPIOSOLENOID1-Pin_1)*%
X28000000Y-44000000D03*
D11*
%TO.P,GPIOSOLENOID1,2,Pin_2*%
%TO.N,Net-(GPIOSOLENOID1-Pin_2)*%
X28000000Y-41500000D03*
%TO.P,GPIOSOLENOID1,3,Pin_3*%
%TO.N,Net-(GPIOSOLENOID1-Pin_3)*%
X28000000Y-39000000D03*
%TO.P,GPIOSOLENOID1,4,Pin_4*%
%TO.N,GND*%
X28000000Y-36500000D03*
%TD*%
D12*
%TO.P,L1,1,1*%
%TO.N,+5V*%
X74500000Y-39500000D03*
%TO.P,L1,2,2*%
%TO.N,Net-(D1-A)*%
X74500000Y-34500000D03*
%TD*%
D10*
%TO.P,GPIOSERVO1,1,Pin_1*%
%TO.N,GND*%
X41000000Y-61000000D03*
D11*
%TO.P,GPIOSERVO1,2,Pin_2*%
%TO.N,Net-(GPIOSERVO1-Pin_2)*%
X41000000Y-58500000D03*
%TO.P,GPIOSERVO1,3,Pin_3*%
%TO.N,Net-(GPIOSERVO1-Pin_3)*%
X41000000Y-56000000D03*
%TD*%
D13*
%TO.P,C2,1*%
%TO.N,+5V*%
X41205113Y-34500000D03*
D14*
%TO.P,C2,2*%
%TO.N,GND*%
X38705113Y-34500000D03*
%TD*%
D15*
%TO.P,D1,1,K*%
%TO.N,+12V*%
X91000000Y-28500000D03*
D16*
%TO.P,D1,2,A*%
%TO.N,Net-(D1-A)*%
X75760000Y-28500000D03*
%TD*%
D17*
%TO.P,D2,1,K*%
%TO.N,Net-(D2-K)*%
X121000000Y-38500000D03*
D18*
%TO.P,D2,2,A*%
%TO.N,Net-(D2-A)*%
X110840000Y-38500000D03*
%TD*%
D19*
%TO.P,R6,1*%
%TO.N,Net-(GPIOINPUT1-Pin_4)*%
X64380000Y-59000000D03*
D20*
%TO.P,R6,2*%
%TO.N,Net-(RGBLED1-Pin_3)*%
X72000000Y-59000000D03*
%TD*%
D21*
%TO.P,J4,6,Shield*%
%TO.N,unconnected-(J4-Shield-Pad6)*%
X27000000Y-29000000D03*
D22*
X30000000Y-28690000D03*
X30000000Y-23850000D03*
D21*
X27000000Y-23540000D03*
%TD*%
D13*
%TO.P,C1,1*%
%TO.N,Net-(C1-Pad1)*%
X41000000Y-27000000D03*
D14*
%TO.P,C1,2*%
%TO.N,GND*%
X38500000Y-27000000D03*
%TD*%
D19*
%TO.P,R5,1*%
%TO.N,Net-(RGBLED1-Pin_2)*%
X72000000Y-53500000D03*
D20*
%TO.P,R5,2*%
%TO.N,Net-(GPIOINPUT1-Pin_5)*%
X64380000Y-53500000D03*
%TD*%
D23*
%TO.P,UltrasonicSensor1,1,Pin_1*%
%TO.N,GND*%
X104500000Y-41500000D03*
D11*
%TO.P,UltrasonicSensor1,2,Pin_2*%
%TO.N,Net-(GPIOINPUT1-Pin_1)*%
X104500000Y-44000000D03*
%TO.P,UltrasonicSensor1,3,Pin_3*%
%TO.N,Net-(GPIOINPUT1-Pin_2)*%
X104500000Y-46500000D03*
%TO.P,UltrasonicSensor1,4,Pin_4*%
%TO.N,+5V*%
X104500000Y-49000000D03*
%TD*%
D23*
%TO.P,Servo1,1,Pin_1*%
%TO.N,Net-(GPIOSERVO1-Pin_2)*%
X116000000Y-55500000D03*
D11*
%TO.P,Servo1,2,Pin_2*%
%TO.N,+5V*%
X116000000Y-58000000D03*
%TO.P,Servo1,3,Pin_3*%
%TO.N,GND*%
X116000000Y-60500000D03*
%TD*%
D19*
%TO.P,R3,1*%
%TO.N,Net-(U1-COMP)*%
X54810000Y-26000000D03*
D20*
%TO.P,R3,2*%
%TO.N,Net-(C1-Pad1)*%
X47190000Y-26000000D03*
%TD*%
D10*
%TO.P,GPIOINPUT1,1,Pin_1*%
%TO.N,Net-(GPIOINPUT1-Pin_1)*%
X28000000Y-63000000D03*
D11*
%TO.P,GPIOINPUT1,2,Pin_2*%
%TO.N,Net-(GPIOINPUT1-Pin_2)*%
X28000000Y-60500000D03*
%TO.P,GPIOINPUT1,3,Pin_3*%
%TO.N,Net-(GPIOINPUT1-Pin_3)*%
X28000000Y-58000000D03*
%TO.P,GPIOINPUT1,4,Pin_4*%
%TO.N,Net-(GPIOINPUT1-Pin_4)*%
X28000000Y-55500000D03*
%TO.P,GPIOINPUT1,5,Pin_5*%
%TO.N,Net-(GPIOINPUT1-Pin_5)*%
X28000000Y-53000000D03*
%TO.P,GPIOINPUT1,6,Pin_6*%
%TO.N,Net-(GPIOINPUT1-Pin_6)*%
X28000000Y-50500000D03*
%TD*%
D23*
%TO.P,Servo2,1,Pin_1*%
%TO.N,Net-(GPIOSERVO1-Pin_3)*%
X105000000Y-55500000D03*
D11*
%TO.P,Servo2,2,Pin_2*%
%TO.N,+5V*%
X105000000Y-58000000D03*
%TO.P,Servo2,3,Pin_3*%
%TO.N,GND*%
X105000000Y-60500000D03*
%TD*%
D24*
%TO.P,C3,1*%
%TO.N,+12V*%
X85500000Y-35632323D03*
D25*
%TO.P,C3,2*%
%TO.N,GND*%
X85500000Y-40632323D03*
%TD*%
D23*
%TO.P,RGBLED1,1,Pin_1*%
%TO.N,Net-(RGBLED1-Pin_1)*%
X97000000Y-53000000D03*
D11*
%TO.P,RGBLED1,2,Pin_2*%
%TO.N,Net-(RGBLED1-Pin_2)*%
X97000000Y-55500000D03*
%TO.P,RGBLED1,3,Pin_3*%
%TO.N,Net-(RGBLED1-Pin_3)*%
X97000000Y-58000000D03*
%TO.P,RGBLED1,4,Pin_4*%
%TO.N,Net-(GPIOINPUT1-Pin_3)*%
X97000000Y-60500000D03*
%TD*%
D26*
%TO.P,U1,1,COMP*%
%TO.N,Net-(U1-COMP)*%
X65000000Y-26000000D03*
%TO.P,U1,2,FEEDBACK*%
%TO.N,Net-(U1-FEEDBACK)*%
X65000000Y-27700000D03*
%TO.P,U1,3,GROUND*%
%TO.N,GND*%
X65000000Y-29400000D03*
%TO.P,U1,4,SWITCH*%
%TO.N,Net-(D1-A)*%
X65000000Y-31100000D03*
%TO.P,U1,5,VIN*%
%TO.N,+5V*%
X65000000Y-32800000D03*
%TD*%
D19*
%TO.P,R1,1*%
%TO.N,+12V*%
X87500000Y-24000000D03*
D20*
%TO.P,R1,2*%
%TO.N,Net-(U1-FEEDBACK)*%
X79880000Y-24000000D03*
%TD*%
D19*
%TO.P,R2,1*%
%TO.N,Net-(U1-FEEDBACK)*%
X49000000Y-31000000D03*
D20*
%TO.P,R2,2*%
%TO.N,GND*%
X56620000Y-31000000D03*
%TD*%
D13*
%TO.P,U2,1,EN1\u002C2*%
%TO.N,Net-(GPIOSOLENOID1-Pin_3)*%
X101125000Y-32800000D03*
D27*
%TO.P,U2,2,1A*%
%TO.N,Net-(GPIOSOLENOID1-Pin_1)*%
X103665000Y-32800000D03*
%TO.P,U2,3,1Y*%
%TO.N,Net-(D2-A)*%
X106205000Y-32800000D03*
%TO.P,U2,4,GND*%
%TO.N,GND*%
X108745000Y-32800000D03*
%TO.P,U2,5,GND*%
X111285000Y-32800000D03*
%TO.P,U2,6,2Y*%
%TO.N,Net-(D2-K)*%
X113825000Y-32800000D03*
%TO.P,U2,7,2A*%
%TO.N,Net-(GPIOSOLENOID1-Pin_2)*%
X116365000Y-32800000D03*
%TO.P,U2,8,VCC2*%
%TO.N,+12V*%
X118905000Y-32800000D03*
%TO.P,U2,9,EN3\u002C4*%
%TO.N,GND*%
X118905000Y-25180000D03*
%TO.P,U2,10,3A*%
X116365000Y-25180000D03*
%TO.P,U2,11,3Y*%
X113825000Y-25180000D03*
%TO.P,U2,12,GND*%
X111285000Y-25180000D03*
%TO.P,U2,13,GND*%
X108745000Y-25180000D03*
%TO.P,U2,14,4Y*%
X106205000Y-25180000D03*
%TO.P,U2,15,4A*%
X103665000Y-25180000D03*
%TO.P,U2,16,VCC1*%
%TO.N,+12V*%
X101125000Y-25180000D03*
%TD*%
D19*
%TO.P,R4,1*%
%TO.N,Net-(GPIOINPUT1-Pin_6)*%
X64880000Y-49000000D03*
D20*
%TO.P,R4,2*%
%TO.N,Net-(RGBLED1-Pin_1)*%
X72500000Y-49000000D03*
%TD*%
D28*
%TO.P,SOLENOID1,1,Pin_1*%
%TO.N,Net-(D2-K)*%
X121000000Y-46500000D03*
D29*
%TO.P,SOLENOID1,2,Pin_2*%
%TO.N,Net-(D2-A)*%
X121000000Y-49000000D03*
%TD*%
D30*
%TO.N,GND*%
X111285000Y-32800000D02*
X108745000Y-32800000D01*
X111285000Y-32800000D02*
X113085000Y-31000000D01*
X113085000Y-31000000D02*
X118000000Y-31000000D01*
X118000000Y-31000000D02*
X118905000Y-30095000D01*
X118905000Y-30095000D02*
X118905000Y-25180000D01*
%TO.N,Net-(GPIOSOLENOID1-Pin_2)*%
X36000000Y-23500000D02*
X37000000Y-22500000D01*
X117815991Y-22500000D02*
X120030000Y-24714009D01*
X27500000Y-42000000D02*
X26000000Y-42000000D01*
X25500000Y-33500000D02*
X26500000Y-32500000D01*
X120030000Y-29606396D02*
X116836396Y-32800000D01*
X26000000Y-42000000D02*
X25500000Y-41500000D01*
X26500000Y-32500000D02*
X33000000Y-32500000D01*
X28000000Y-41500000D02*
X27500000Y-42000000D01*
X33000000Y-32500000D02*
X36000000Y-29500000D01*
X36000000Y-29500000D02*
X36000000Y-23500000D01*
X25500000Y-41500000D02*
X25500000Y-33500000D01*
X37000000Y-22500000D02*
X117815991Y-22500000D01*
X120030000Y-24714009D02*
X120030000Y-29606396D01*
X116836396Y-32800000D02*
X116365000Y-32800000D01*
%TO.N,+5V*%
X98500000Y-49000000D02*
X104500000Y-49000000D01*
X92000000Y-42500000D02*
X98500000Y-49000000D01*
X77500000Y-42500000D02*
X92000000Y-42500000D01*
X74500000Y-39500000D02*
X77500000Y-42500000D01*
%TO.N,Net-(U1-FEEDBACK)*%
X49000000Y-31000000D02*
X51000000Y-31000000D01*
X54300000Y-27700000D02*
X65000000Y-27700000D01*
X51000000Y-31000000D02*
X54300000Y-27700000D01*
%TO.N,GND*%
X66725000Y-30675431D02*
X65449569Y-29400000D01*
X98500000Y-23500000D02*
X101985000Y-23500000D01*
X38705113Y-34500000D02*
X38705113Y-27205113D01*
X109500000Y-58500000D02*
X109500000Y-46500000D01*
X38705113Y-27205113D02*
X38500000Y-27000000D01*
X85500000Y-40632323D02*
X75543108Y-30675431D01*
X103665000Y-25180000D02*
X106205000Y-25180000D01*
X65449569Y-29400000D02*
X65000000Y-29400000D01*
X109500000Y-46500000D02*
X104500000Y-41500000D01*
X28000000Y-36500000D02*
X36705113Y-36500000D01*
X104500000Y-37045000D02*
X108745000Y-32800000D01*
X104500000Y-41500000D02*
X104500000Y-37045000D01*
X106205000Y-25180000D02*
X118905000Y-25180000D01*
X36705113Y-36500000D02*
X38705113Y-34500000D01*
X75543108Y-30675431D02*
X66725000Y-30675431D01*
X98500000Y-27632323D02*
X98500000Y-23500000D01*
X101985000Y-23500000D02*
X103665000Y-25180000D01*
X58220000Y-29400000D02*
X65000000Y-29400000D01*
X56620000Y-31000000D02*
X58220000Y-29400000D01*
X105000000Y-60500000D02*
X107500000Y-60500000D01*
X107500000Y-60500000D02*
X109500000Y-58500000D01*
X85500000Y-40632323D02*
X98500000Y-27632323D01*
X105000000Y-60500000D02*
X116000000Y-60500000D01*
%TO.N,Net-(GPIOSOLENOID1-Pin_1)*%
X77848098Y-40550000D02*
X80186396Y-40550000D01*
X72848098Y-35550000D02*
X77848098Y-40550000D01*
X33450000Y-38550000D02*
X41813604Y-38550000D01*
X44813604Y-35550000D02*
X72848098Y-35550000D01*
X28000000Y-44000000D02*
X33450000Y-38550000D01*
X81636396Y-42000000D02*
X94465000Y-42000000D01*
X94465000Y-42000000D02*
X103665000Y-32800000D01*
X80186396Y-40550000D02*
X81636396Y-42000000D01*
X41813604Y-38550000D02*
X44813604Y-35550000D01*
%TO.N,Net-(GPIOINPUT1-Pin_1)*%
X101500000Y-53500000D02*
X103175000Y-51825000D01*
X101500000Y-63000000D02*
X101500000Y-53500000D01*
X28000000Y-63000000D02*
X38000000Y-63000000D01*
X103175000Y-51825000D02*
X107175000Y-51825000D01*
X38000000Y-63000000D02*
X40500000Y-65500000D01*
X108000000Y-47500000D02*
X104500000Y-44000000D01*
X40500000Y-65500000D02*
X99000000Y-65500000D01*
X99000000Y-65500000D02*
X101500000Y-63000000D01*
X108000000Y-51000000D02*
X108000000Y-47500000D01*
X107175000Y-51825000D02*
X108000000Y-51000000D01*
%TD*%
M02*
